<?xml version="1.0" encoding="utf-8"?>
<!-- Generator: Adobe Illustrator 15.1.0, SVG Export Plug-In . SVG Version: 6.00 Build 0)  -->
<!DOCTYPE svg PUBLIC "-//W3C//DTD SVG 1.1//EN" "http://www.w3.org/Graphics/SVG/1.1/DTD/svg11.dtd">
<svg version="1.1" id="Layer_1" xmlns="http://www.w3.org/2000/svg" xmlns:xlink="http://www.w3.org/1999/xlink" x="0px" y="0px"
	 width="867.4px" height="218.27px" viewBox="0 0 867.4 218.27" enable-background="new 0 0 867.4 218.27" xml:space="preserve">
<g id="Layer_1_1_">
	<g>
		<g>
			<path fill="#FFFFFF" d="M464.241,112.046h12.539v49.488c0,6.706-0.496,11.748-1.454,15.177c-0.974,3.414-2.2,6.234-3.628,8.512
				c-1.436,2.275-3.194,4.297-5.284,6.077c-6.898,5.959-15.926,8.939-27.076,8.939c-11.357,0-20.465-2.967-27.335-8.864
				c-2.077-1.835-3.834-3.877-5.283-6.152c-1.432-2.276-2.604-5.042-3.542-8.326c-0.945-3.282-1.414-8.45-1.414-15.479v-49.372
				h12.555v49.488c0,8.203,0.929,13.907,2.8,17.107c1.866,3.207,4.717,5.76,8.553,7.712c3.839,1.932,8.344,2.896,13.551,2.896
				c7.404,0,13.417-1.938,18.081-5.808c2.47-2.089,4.236-4.53,5.31-7.366c1.076-2.829,1.63-7.663,1.63-14.541v-49.489H464.241z"/>
		</g>
		<path fill="#FFFFFF" d="M476.726,115.562c-0.035-3.799-0.464-12.725-2.008-11.049c-1.662,1.82-2.814,0.972-3.297-3.367
			c-0.31-2.792,0.373-4.953,0.339-6.38c-0.021-0.483-0.787-1.179-1.008-0.448c-1.367,4.048,0.669,14.347-1.256,13.229
			c-1.241-0.725-1.807-4.022-3.041-5.994c0,0-0.07-1.378-0.421-1.91c-0.29-0.484-1.214-0.67-1.531-1.159
			c-1.586-2.78-2.813-5.739-2.365-9.271c0.475-3.821-1.614,0.304-2.512-0.034c-2.558-1.008-2.323,6.297-1.73,9.504
			c1.311,7.215,5.89,4.821,6.607,19.292"/>
		<path fill="#FFFFFF" d="M413.922,117.557c0.369-9.022,1.669-16.204,1.71-24.75c0.032-6.104-4.169-13.423-6.628-19.479
			c-0.924-2.296-1.652,1.166-3.384-0.738c-2.058-2.229,3.918,7.953,4.529,10.829c1.021,4.739,0.637,4.773,0.738,7.837
			c0.035,1.206-0.428,6.057-0.803,7.11c-0.755,2.181-2.163,3.808-4.581,4.243c-6.493,1.165-12.502-6.788-16.506-11.001
			c-4.781-5.008-6.763-8.07-12.806-9.897c-0.885-0.263-1.748-1.062-2.559-0.953c-0.251,0.021,0.414,0.856,0.665,1.428
			c0.487,1.187,3.005,1.441,5.377,3.483c3.94,3.395,8.702,8.512,10.922,11.934c5.156,7.933,10.974,10.829,11.189,18.609"/>
		<g>
			<path fill="#FFFFFF" d="M484.712,90.448"/>
			<g>
				<path fill="none" stroke="#010101" stroke-width="0.9045" stroke-miterlimit="10" d="M484.712,90.448"/>
			</g>
		</g>
		<g>
			<path fill="#FFFFFF" d="M455.156,75.37"/>
			<g>
				<path fill="none" stroke="#010101" stroke-width="0.9045" stroke-miterlimit="10" d="M455.156,75.37"/>
			</g>
		</g>
		<g>
			<path fill="#FFFFFF" d="M403.744,57.457v0.069l0.104,0.165c0.552-0.185,0.735,0.235,0.996,0.801
				c0.138-0.111,0.225-0.249,0.425-0.153c0.376,0.938,0.317,0.359,1.007,0.669c-0.128-0.16-0.334-0.345-0.287-0.516l1.01,0.903
				c0.109-0.346,0.269-0.684,0.61-0.684c0.386-0.518,1.249-0.69,1.875-1c-0.1-0.235-0.157-0.442-0.147-0.559
				c0.23-0.145,0.458-0.062,0.683,0.117c0.034-0.048,0.068-0.117,0.097-0.186c-0.027,0.069-0.062,0.139-0.097,0.186
				c0.138,0.118,0.286,0.29,0.386,0.434c0-0.13-0.017-0.269,0.118-0.317l-0.528-0.601c0.024-0.048,0.086-0.055,0.141-0.055
				l-0.242-0.062l-0.024,0.221c-0.058,0.117-0.186,0.097-0.317,0.083c-0.169-0.137-0.117-0.255-0.134-0.406l-0.487-0.117
				c-0.482,0.2,0.517,1.021-0.276,0.792l-0.042-0.235c-0.31-0.159-0.586-0.491-0.969-0.441c0.218-0.614-0.93-0.38-0.379-0.938
				c-0.521-1.166-2.017-1.924-2.241-3.346c-0.535,0.221-1.255,0.924-2.083,1.021c0-0.131-0.053-0.304,0.079-0.352l-0.448-0.035
				c0.13,0.138,0.334,0.29,0.248,0.504c-0.546-0.214-0.148,0.468-0.394,0.634l-0.693-0.303l-0.023,0.137
				c0.758,1.008,1.272,2.346,1.992,3.553L403.744,57.457z"/>
			<path fill="#FFFFFF" d="M386.769,40.584l0.02,0.614c-1.54,0.187-3.155,0.324-4.89,0.455c-1.717,0.151-3.566,0.304-5.543,0.724
				c-1.972,0.435-4.117,1.221-5.983,2.56c-1.876,1.324-3.366,3.061-4.562,4.82c-0.618,0.903-1.162,1.821-1.649,2.739
				c-0.252,0.455-0.487,0.924-0.718,1.38l-0.645,1.282l-2.52,5.139l-1.27,2.483l-0.627,1.2c-0.062,0.103-0.128,0.234-0.211,0.338
				l-0.287,0.386c-0.444,0.622-0.927,1.173-1.542,1.87c-0.242,0.276-0.776,0.876-1.176,1.407c-0.42,0.537-0.803,1.11-1.106,1.71
				c-0.593-0.503-1.18-1.034-1.749-1.572c-0.562,1.627-0.793,3.394-0.697,5.09c0.021,0.435,0.069,0.869,0.118,1.29l0.083,0.621
				c0.034,0.213,0.062,0.399,0.11,0.565c0.144,0.669,0.321,1.29,0.516,1.89c0.756,2.346,1.783,4.656,3.267,6.442
				c-0.052-0.579-0.076-1.138-0.089-1.689c0.805,0.573,1.663,1.628,2.528,2.71c0.859,1.062,1.738,2.132,2.36,3.015l-0.597,0.221
				c-1.121-1.076-1.086-1.069-1.093-0.69c-0.011,0.352,0.055,1.042-1.038,0.986c-0.204-0.117-0.41-0.226-0.597-0.345l-0.031,0.47
				c0.201,0.117,0.407,0.234,0.625,0.331c-0.318,0.152-0.642,0.483-1.122,0.035c0.163,0.254,0.322,0.517,0.498,0.766
				c-0.028,1.263-0.17,2.179-0.553,2.917c-0.368,0.718-0.98,1.241-1.727,1.787c0.321,0.159,0.669-0.214,1.13-0.331
				c0.463-0.119,0.998,0.013,1.877,1.041l-0.656,0.262c1.024,0.325,2.018,0.553,2.973,0.69c0.226,0.421,0.461,0.835,0.728,1.243
				c1.048,0.076,1.731-0.056,2.52,0.468l0.652-1.062c1.775,0.856,3.884,1.028,5.783,1.076c1.931,0.049,3.718,0.021,5.267,0.504
				c0.718-1.139,2.353,0.434,4.018-0.553l-0.708-1.289c-0.9-0.876-2.407-1.09-4.066-1.221c-1.672-0.124-3.548-0.201-5.049-0.738
				l0.238-0.669c0.652-0.117,1.162-0.621,1.89-0.221l0.31-1.187c-0.441-2.173-1.607-2.055-2.928-1.62
				c-1.307,0.461-2.856,1.151-3.258,0.669c-0.852-0.959-0.218-1.407,0.369-1.677c0.604-0.283,1.231-0.42,0.762-0.482
				c1.279-0.455,0.972-1.324,0.545-2.228c-0.438-0.89-0.887-1.911-0.704-2.636c0.052-0.786,0.052-1.317,0.007-1.724
				c-0.024-0.414-0.167-0.696-0.394-1.096c-0.235-0.373-0.542-0.877-0.834-1.49c-0.287-0.627-0.528-1.339-0.645-2.001
				c-0.445-0.509-0.791-1.13-1.039-1.766c-0.117-0.318-0.204-0.62-0.269-0.89l-0.032-0.089l-0.027-0.048l-0.023-0.096
				c-0.024-0.069-0.048-0.117-0.051-0.186c-0.042-0.262,0-0.532,0.134-0.738c0.065-0.117,0.162-0.214,0.269-0.296
				c0.048-0.035,0.109-0.069,0.165-0.104c0.059-0.048,0.083-0.033,0.2-0.117c0.622-0.565,1.507-1.407,2.335-2.29l0.596-0.669
				l0.293-0.352l0.359-0.476c0.251-0.311,0.468-0.635,0.662-0.986l0.152-0.248l0.107-0.151l0.185-0.297
				c1.021-1.559,1.901-3.069,2.486-4.469c0.741-1.262,0.493-3.373,0.569-5.159c0.017-0.448,0.076-0.883,0.154-1.275
				c0.069-0.365,0.177-0.683,0.345-0.918c0.334-0.49,0.956-0.751,1.935-0.601c0.804-0.993,1.638-1.724,2.293-2.013l0.476,0.517
				c0.345-0.276,0.486-0.449,0.728-0.718c0.234-0.268,0.638-0.648,1.367-1.013c1.438-0.738,3.842-1.345,6.118-1.608
				c2.011-0.151,2.677-1.917,3.632,0c3.676,1.27,7.227-0.91,9.708,0.435c0.314-0.538,1.038-0.856,0.738-1.441
				c-0.886-0.082-1.49-0.585-1.966-1.303c-0.445-0.703-0.755-1.614-0.58-2.428c0.221,0.117,0.435,0.248,0.638,0.379
				c-0.263-0.579-0.555-1.124-0.89-1.676c-0.331,0.089-0.652,0.206-0.979,0.317c-0.131-0.435-0.177-0.779-0.135-1.034
				c-1.41-0.87-2.652-2.463-4.325-3.546c-0.611,0.201-1.245,0.317-1.966,0.304C388.379,41.171,387.642,40.999,386.769,40.584z"/>
		</g>
		<path fill="#FFFFFF" d="M476.726,116.369c0-6.263,0.751-10.195,3.876-15.527c0.373-0.635-0.29-0.903-1.118-1.014
			c-0.896-0.09-0.896-0.09-2.221,1.952c-1.656,2.51-3.809,3.973-4.531,5.958c-0.897,2.415-1.277,5.022-1.312,8.63"/>
		<g>
			<path fill="#FFFFFF" d="M472.346,88.44l-0.049,0.035l-0.049,0.13c0.505,0.235,0.312,0.489,0.145,0.875
				c0.152,0.015,0.332-0.013,0.399,0.145c-0.337,0.559-0.014,0.29,0.305,0.69c0-0.104-0.041-0.283,0.11-0.339
				c0.076,0.27,0.117,0.512,0.193,0.759c0.304-0.118,0.654-0.2,0.923-0.103c0.629-0.069,1.388,0.103,2.07,0.116
				c0.068-0.096,0.151-0.179,0.234-0.213c0.276,0,0.387,0.083,0.47,0.18c0.048,0,0.103-0.028,0.187-0.049
				c-0.084,0.021-0.139,0.049-0.187,0.049c0.014,0.068,0.027,0.151,0.014,0.221c0.075-0.055,0.151-0.097,0.269-0.097l-0.021-0.276
				c0.082,0,0.117,0,0.158,0.007l-0.158-0.055l-0.159,0.048c-0.103,0.035-0.185,0-0.283-0.034c-0.048-0.083,0.098-0.11,0.151-0.159
				l-0.276-0.151c-0.51-0.083-0.274,0.448-0.73,0.179l0.097-0.097c-0.124-0.124-0.097-0.316-0.428-0.42
				c0.564-0.096-0.407-0.448,0.365-0.414c0.199-0.255,0.186-0.56,0.255-0.856c0.055-0.303,0.206-0.607,0.683-0.703
				c-0.477-0.283-1.428-0.642-1.91-1.173c0.097-0.033,0.222-0.068,0.317,0l-0.165-0.303c-0.069,0.103-0.083,0.255-0.304,0.234
				c-0.082-0.421-0.476-0.035-0.718-0.165c-0.014-0.186-0.048-0.4-0.055-0.6l-0.124,0.014c-0.579,0.772-1.323,1.573-1.752,2.497
				L472.346,88.44z"/>
			<path fill="#FFFFFF" d="M484.084,88.73l-0.02-0.593c0.594-0.428,1.42-0.498,2.138-0.234c0.751,0.254,1.353,0.793,1.669,1.407
				c0.021,0.069,0.069,0.151,0.097,0.235l0.021,0.055c-0.021,0.028,0.062,0.131,0.09,0.186l0.007,0.062l0.034,0.015v0.006v0.014
				c0.083,0.097-0.11-0.151-0.097-0.13l0,0v0.034l-0.034,0.042l-0.033,0.103c-0.063,0.138-0.111,0.353-0.18,0.642
				c-0.14,0.586-0.382,1.407-0.574,2.311l-2.173-0.746c1.104,1.159,1.421,2.614,2.347,4.339l0.552-0.187
				c0.965,0.904,1.131,2.311,0.497,2.718l-0.469-0.373c0.186-0.938-0.18-0.062-1.395-1.234l-0.165-0.27l-0.304-0.096l0.18,0.283
				c-0.29-0.187-0.662-0.42-0.704-0.594l-0.151,0.117c-1.574-0.552-2.718-1.365-4.235-2.393c0.165,0.172,1.683,1.11,1.006,1.062
				l-0.456-0.359c0.208,0.283,0.441,0.593,0.642,0.903l-0.702-0.353c0.232,0.339,0.489,0.642,0.232,0.594l0.904,0.786
				c-0.703,0.179-0.214,1.641-1.028,1.139c0.298,0.496,0.188,0.449,0.042,0.4c-0.132-0.056-0.275-0.139-0.15,0.331
				c0.232,0.351,0.461,0.724,0.702,1.076c0.594,0.703,1.001,0.703,1.331,0.537c0.331-0.172,0.565-0.475,1.049-0.552l0.482,0.497
				c0.041,0.255,0.331,0.758-0.049,0.668l0.787,0.918c1.606,1.427,1.826,0.876,1.606,0.103c-0.206-0.801-0.827-1.808-0.476-1.738
				c0.67,0.083,1.104,0.565,1.373,1c0.263,0.441,0.345,0.82,0.413,0.62c0.332,0.856,1.015,1.193,1.807,1.359
				c0.801,0.181,1.719,0.145,2.422,0.38c1.497,0.324,2.389-0.346,2.917-1.27c0.518-0.918,0.719-2.077,1.022-2.842
				c-0.771-1.896-0.228-3.263,0.573-4.842c0.392-0.786,0.834-1.641,1.158-2.593c0.352-0.938,0.531-1.993,0.4-3.042
				c0.083-1.028-1.255-2.282-2.388-3.255c-0.572-0.503-1.069-0.939-1.33-1.504l-0.015-0.021l0,0l0,0l-0.144-0.227l0,0l0,0V84.19
				v-0.048c0-0.035,0-0.069,0-0.103c0-0.104,0.102-0.167,0.102-0.331c0.043-0.325,0.166-0.711,0.373-1.173
				c-0.606-1.056-1.337-2.042-2.193-2.917l0.464-0.517c-1.449-1.124-3.319-1.572-5.028-1.594c-1.691,0-3.291,0.353-4.63,0.594
				c-0.613,0.083-0.959,0.599-1.242,0.833c-0.274,0.249-0.461,0.235-0.861-0.676c-1.311-0.461-2.704,0.235-3.801,1.29
				c-1.117,1.075-1.896,2.449-2.725,3.47c0.428,0.42,0.663,1.104,1.193,1.055c0.145-0.689,0.807-0.951,1.428-0.758
				c0.663,0.152,1.296,0.725,1.697,1.448c-0.097,0-0.235,0.014-0.351,0.027c0.398,0.283,0.758,0.601,1.109,0.925
				c0-0.186,0.015-0.4,0.043-0.607c0.232,0.352,0.397,0.635,0.509,0.869c0.662,0.358,1.449,1.662,1.919,2.593
				C483.415,88.089,483.733,87.938,484.084,88.73z"/>
		</g>
		<g>
			<path fill="#FFFFFF" d="M397.326,57.325h-0.048l-0.052,0.062c0.327,0.303,0.134,0.406-0.109,0.537
				c0.12,0.083,0.244,0.118,0.258,0.235c-0.425,0.199-0.097,0.179-0.007,0.552c0.048-0.082,0.068-0.187,0.21-0.152l-0.145,0.518
				c0.255,0.068,0.532,0.152,0.674,0.324c0.469,0.213,0.927,0.682,1.362,1c0.103-0.034,0.204-0.082,0.293-0.068
				c0.183,0.103,0.221,0.233,0.199,0.351c0.045,0.007,0.103,0.035,0.169,0.035c-0.066,0-0.124-0.028-0.169-0.035
				c-0.017,0.069-0.056,0.138-0.096,0.201c0.079,0,0.158-0.014,0.234,0.055l0.142-0.269c0.048,0.013,0.083,0.048,0.113,0.083
				l-0.074-0.131l-0.149-0.008c-0.108-0.041-0.128-0.109-0.169-0.179c0.011-0.069,0.103-0.048,0.176-0.055l-0.115-0.248
				c-0.327-0.263-0.42,0.248-0.607-0.166l0.121-0.02c-0.027-0.165,0.066-0.296-0.121-0.496c0.462,0.117-0.142-0.491,0.405-0.186
				c0.503-0.255,0.403-1.055,1.22-1.089c-0.313-0.305-1.017-0.752-1.351-1.221c0.079,0,0.175-0.027,0.242,0.055l-0.118-0.255
				c-0.027,0.069-0.069,0.172-0.242,0.117c-0.034-0.305-0.368-0.104-0.537-0.248l-0.023-0.399l-0.094-0.035
				c-0.44,0.435-1.104,0.718-1.597,1.118L397.326,57.325z"/>
			<path fill="#FFFFFF" d="M408.101,56.47l-0.121-0.573c0.532-0.738,1.482-1.166,2.355-0.856c0.912,0.304,1.549,1.18,1.956,2.077
				c0.203,0.441,0.379,0.903,0.502,1.345c0.076,0.235,0.142,0.448,0.183,0.663l0.076,0.324l0.041,0.152l0.068,0.226
				c0.345,1.256,0.687,2.545,1.111,3.801l-1.833,0.394c1.458,1,2.504,2.408,4.076,3.497l0.21-0.585
				c1.122,0.248,2.024,1.4,1.932,2.221h-0.487c-0.466-1-0.142,0.104-1.532-0.083l-0.284-0.13l-0.203,0.152l0.27,0.13
				c-0.283,0.02-0.635,0.117-0.776-0.035l-0.01,0.248c-1.204,0.745-2.325,0.924-3.801,1.124c0.204,0.104,1.625-0.296,1.25,0.353
				l-0.498,0.013l0.942,0.455l-0.573,0.374c0.345,0.165,0.679,0.262,0.531,0.502l0.97-0.076c-0.208,1.056,1.078,2.2,0.461,3.304
				c0.976,0.13-0.227,0.799,0.617,1.302l1.029-0.338c1.366-0.751,0.462-2.186,0.831-3.276l0.562-0.035
				c0.189,0.187,0.675,0.305,0.43,0.607l0.989-0.041c3.373-0.903-0.989-1.842-0.535-2.275c0.811-0.953,2.15,0.242,1.972-0.131
				c1.415,0.739,2.287-1.124,3.349-1.725c2.083-1.503,0.48-3.828,0.066-5.317c-2.942-1.945-1.428-5.767-2.627-8.443
				c-0.259-0.987-1.573-1.71-2.501-2.297c-0.944-0.614-1.524-1.151-0.862-2.793c-0.568-1.056-1.248-2.042-2.065-2.89l0.334-0.469
				c-1.324-1.104-3.09-1.607-4.804-1.558c-1.752,0.034-3.366,0.634-4.673,1.255c-0.586,0.249-0.88,0.799-1.11,1.104
				c-0.235,0.304-0.421,0.373-0.915-0.256c-1.273,0.069-2.435,1.229-3.187,2.566c-0.783,1.325-1.258,2.807-1.853,3.767
				c0.4,0.318,0.658,0.841,1.087,0.717c0.075-0.615,0.592-1,1.142-1.035c0.568-0.048,1.187,0.255,1.62,0.786l-0.299,0.139
				c0.375,0.13,0.72,0.283,1.069,0.448c-0.013-0.201-0.032-0.4-0.032-0.608c0.251,0.207,0.435,0.42,0.56,0.608
				c0.662,0.013,1.569,0.855,2.176,1.469C407.313,56.236,407.61,55.898,408.101,56.47z"/>
		</g>
		<g>
			<path fill="#FFFFFF" d="M463.261,72.486v0.035l0.026,0.083c0.381-0.262,0.464-0.035,0.567,0.255
				c0.082-0.089,0.165-0.208,0.276-0.185c0.117,0.489,0.164,0.137,0.578,0.185c-0.068-0.068-0.165-0.13-0.131-0.269l0.552,0.366
				c0.119-0.227,0.271-0.482,0.505-0.537c0.332-0.4,0.944-0.663,1.393-0.967c-0.027-0.137-0.055-0.255-0.027-0.337
				c0.158-0.145,0.324-0.119,0.462-0.035c0.021-0.048,0.076-0.096,0.083-0.144c-0.007,0.048-0.062,0.096-0.083,0.144
				c0.083,0.054,0.159,0.137,0.206,0.221c0.021-0.083,0.042-0.166,0.125-0.221l-0.312-0.318c0.056-0.033,0.075-0.062,0.118-0.062
				h-0.165l-0.041,0.153c-0.048,0.083-0.145,0.083-0.235,0.096c-0.109-0.069-0.047-0.152-0.02-0.249h-0.346
				c-0.337,0.228,0.256,0.601-0.276,0.586v-0.152c-0.185-0.054-0.344-0.206-0.62-0.102c0.215-0.455-0.593-0.062-0.18-0.538
				c-0.263-0.683-1.214-0.82-1.325-1.739c-0.345,0.283-0.848,0.938-1.38,1.227c0-0.089,0-0.185,0.062-0.255l-0.283,0.083
				c0.097,0.069,0.221,0.117,0.165,0.283c-0.351,0-0.138,0.373-0.29,0.553l-0.407-0.028l-0.035,0.11
				c0.442,0.468,0.691,1.179,1.009,1.759h0.028V72.486z"/>
			<path fill="#FFFFFF" d="M452.914,62.147l0.151,0.484c-1.979,0.82-3.911,1.91-5.676,3.331c-1.802,1.435-3.437,3.194-4.764,5.208
				c-0.334,0.496-0.662,1.055-0.938,1.538l-0.41,0.717c-0.159,0.256-0.31,0.539-0.441,0.82c-0.573,1.125-1.034,2.312-1.375,3.553
				c-0.7,2.477-0.821,5.104-0.467,7.512l-1.875-0.028c1.428,2.641,2.876,5.187,4.827,6.863l0.053-0.911
				c1.221,0.441,2.486,2.063,2.687,3.256l-0.496,0.062c-0.834-1.469-0.103,0.165-1.607-0.014l-0.33-0.186l-0.16,0.235l0.349,0.186
				c-0.286,0.068-0.618,0.226-0.818,0l0.09,0.386c-0.944,1.25-2.011,1.656-3.432,2.077c0.245,0.144,1.524-0.586,1.407,0.462
				l-0.486,0.055l1.165,0.635l-0.43,0.649c0.409,0.221,0.79,0.317,0.737,0.724l0.956-0.255c0.224,1.607,1.973,3.07,1.69,4.711
				c0.999,0.048,0,1.138,0.938,1.705l0.938-0.566c1.193-1.228-0.158-3.18-0.228-4.807l0.546-0.132
				c0.255,0.248,0.793,0.333,0.669,0.814l0.951-0.214c1.525-0.89,1.104-1.559,0.332-2.042c-0.766-0.482-1.877-0.807-1.738-1.171
				c0.455-1.512,2.249,0.013,1.917-0.484c1.738,0.835,1.862-1.965,2.731-2.917c0.793-1.167,0.607-2.429,0.164-3.615
				c-0.44-1.158-1.109-2.255-1.386-3.117c-1.579-1.117-1.925-2.89-1.704-4.435c0.234-1.574,1-2.793,1.213-3.801
				c0.277-0.461-0.338-1.352-0.537-2.207c-0.041-0.214-0.055-0.421-0.055-0.601c0.02-0.221,0.097-0.399,0.221-0.573
				c0.249-0.352,0.676-0.42,1.436-0.233c0.503-0.519,1.021-0.953,1.558-1.325l0.414,0.352c0.565-0.635,0.918-1.415,1.338-2.194
				c0.394-0.786,0.925-1.552,1.559-1.986c0.283-0.151,0.4-0.585,0.538-0.82c0.11-0.201,0.276-0.201,0.553,0.552
				c0.683,0.421,1.233,0.138,2.026-0.18c0.759-0.304,1.767-0.594,2.554-0.337c0.185-0.47,0.647-0.842,0.44-1.222
				c-0.553,0.097-0.911-0.207-1.173-0.725c-0.234-0.482-0.386-1.2-0.234-1.855l0.344,0.235c-0.131-0.435-0.275-0.842-0.454-1.255
				c-0.192,0.103-0.386,0.213-0.579,0.331c-0.068-0.352-0.082-0.621-0.055-0.849c-0.786-0.593-1.545-1.849-2.704-2.628
				C455.073,62.34,454.293,62.499,452.914,62.147z"/>
		</g>
		<g>
			<path fill="#FFFFFF" d="M498.992,76.522l-0.035,0.014l-0.062,0.089c0.366,0.27,0.174,0.456-0.068,0.69
				c0.123,0.048,0.241,0.076,0.263,0.201c-0.456,0.345-0.097,0.235-0.042,0.684c0.057-0.097,0.098-0.249,0.248-0.236
				c-0.068,0.236-0.138,0.471-0.227,0.704c0.275,0.035,0.553,0.098,0.677,0.305c0.489,0.179,0.917,0.717,1.317,1.082
				c0.139-0.083,0.264-0.152,0.359-0.179c0.179,0.117,0.192,0.303,0.123,0.482c0.056,0.02,0.11,0.034,0.166,0.034
				c-0.056,0-0.11-0.014-0.166-0.034c-0.048,0.103-0.11,0.234-0.207,0.338c0.097-0.021,0.207-0.048,0.276,0.028
				c0.082-0.145,0.192-0.297,0.274-0.462c0.049,0.015,0.069,0.034,0.084,0.097l-0.035-0.186l-0.173,0.007
				c-0.109,0-0.109-0.103-0.149-0.187c0.04-0.138,0.149-0.124,0.232-0.165l-0.075-0.359c-0.31-0.27-0.558,0.538-0.647-0.034
				l0.158-0.076c0-0.221,0.116-0.47-0.082-0.704c0.529,0.013-0.076-0.669,0.51-0.455c0.593-0.608,0.434-1.746,1.256-2.359
				c-0.388-0.234-1.194-0.434-1.656-0.84c0.089-0.062,0.179-0.131,0.263-0.083l-0.194-0.263c-0.014,0.118-0.014,0.283-0.186,0.311
				c-0.131-0.379-0.386,0.069-0.62,0l-0.131-0.496l-0.104,0.034c-0.283,0.751-0.877,1.4-1.344,1.993v0.026H498.992z"/>
			<path fill="#FFFFFF" d="M503.494,59.781l-0.364,0.352c-1.401-1.255-3.051-2.408-4.938-3.181c-0.235-0.103-0.47-0.2-0.704-0.296
				l-0.373-0.118l-0.199-0.069c-0.298-0.089-0.601-0.165-0.89-0.221c-0.607-0.145-1.214-0.221-1.801-0.249c0,0-0.034,0-0.034-0.021
				v-0.062l0.015-0.104l0.02-0.221l0.035-0.462c0-0.29,0.013-0.587,0.013-0.89c-0.013-0.283-0.013-0.586-0.048-0.87
				c0-0.138-0.034-0.283-0.055-0.435l-0.021-0.118l-0.042-0.185l-0.082-0.387c-0.441-2.027-1.408-4.104-2.863-5.794
				c-1.449-1.726-3.331-3.028-5.297-3.883c-1.98-0.869-4.084-1.291-6.092-1.374c0.132-0.635,0.29-1.234,0.449-1.855
				c-1.855,0.421-3.704,0.972-5.388,1.711c-1.669,0.731-3.179,1.689-4.33,2.827c0.399-0.021,0.8-0.056,1.193-0.056
				c-0.325,0.655-1.008,1.36-1.768,1.965c-0.744,0.635-1.523,1.201-2.221,1.504l-0.152-0.491c1.726-1.324-0.213-0.048-0.124-1.655
				l0.214-0.414l-0.304-0.09l-0.234,0.421c-0.097-0.256-0.333-0.566-0.028-0.842l-0.504,0.235c-1.724-0.482-2.447-1.339-3.138-2.704
				c-0.179,0.386,0.938,1.331-0.578,1.876l-0.111-0.512c-0.303,0.573-0.579,1.173-0.786,1.766c-0.33,0-0.661,0.041-1.001,0.062
				c-0.255,0.669-0.255,1.172-0.834,1.524l0.607,0.772c-1.035,0.938-1.78,2.373-2.345,3.849c-0.573,1.477-0.967,2.994-1.58,4.298
				c0.394,0.393,0.221,0.891,0.063,1.496c-0.167,0.629-0.354,1.401,0.047,2.152c0.365-0.228,0.726-0.429,1.062-0.614
				c0.738-0.738,1.014-1.924,1.387-3.215c0.366-1.275,0.883-2.682,1.684-3.58l0.455,0.345c-0.097,0.504,0.18,0.987-0.305,1.392
				l0.87,0.518c1.752,0.249,1.875-0.469,1.861-1.47c-0.027-0.993-0.152-2.284,0.304-2.415c0.889-0.268,1.076,0.305,1.146,0.807
				c0.068,0.504,0,0.98,0.165,0.683c0.027,1.007,0.717,1.09,1.496,1.09c0.766,0,1.669-0.035,2.235,0.221
				c1.234,0.427,2.132,0.109,3.11-0.387c0.966-0.51,2.008-1.18,2.939-1.414c1.228-1.566,3.42-1.691,5.089-1.097
				c0.85,0.296,1.573,0.751,2.139,1.187c0.554,0.448,0.953,0.855,1.325,1.152c0.241,0.372,1.227,0.118,2.021,0.4
				c0.772,0.234,1.234,0.938-0.117,1.725c0,0.165,0,0.338-0.015,0.502c0,0,0.015,0.172,0.041,0.305c0,0.13,0,0.268,0,0.42
				c0.027,0.297,0.027,0.586,0,0.904c-0.096,1.254-0.269,2.607-0.434,3.966l-0.544,0.214c-0.083,1.442-0.126,2.883-0.126,4.187
				c1.643-0.021,3.478-0.096,5.243-0.179l2.593-0.139c0.415-0.049,0.787,0.021,1.173,0.034c0.173,0,0.429,0.069,0.552,0.083
				l0.14-0.014c0.752-0.055,1.531,0.035,2.158,0.414c0.324,0.2,0.779,0.139,1.097,0.2c0.27,0.055,0.352,0.242-0.18,0.835
				c0.026,0.96,0.635,1.607,1.337,2.518c0.705,0.882,1.415,2.021,1.511,3.098c0.511-0.014,1.042,0.332,1.317-0.118
				c-0.344-0.6-0.221-1.228,0.11-1.793c0.325-0.566,0.891-1.069,1.552-1.234l-0.034,0.544c0.311-0.365,0.594-0.744,0.897-1.151
				c-0.194-0.179-0.387-0.338-0.566-0.496c0.263-0.242,0.512-0.387,0.705-0.455c0.158-1.173,0.944-2.546,1.042-4.133
				C504.563,62.223,503.983,61.396,503.494,59.781z"/>
		</g>
		<g>
			<path fill="#FFFFFF" d="M470.854,27.693l-0.021,0.049l0.042,0.165c0.468,0.006,0.51,0.434,0.538,0.944
				c0.123-0.035,0.241-0.124,0.365,0.026c0,0.876,0.123,0.4,0.566,0.876c-0.057-0.158-0.165-0.373-0.057-0.49
				c0.166,0.338,0.311,0.704,0.463,1.069c0.179-0.228,0.434-0.448,0.676-0.297c0.463-0.255,1.158-0.055,1.739-0.034
				c0-0.249,0.026-0.435,0.082-0.525c0.193-0.035,0.358,0.139,0.463,0.394c0.061-0.035,0.089-0.076,0.145-0.118
				c-0.056,0.042-0.084,0.083-0.145,0.118c0.068,0.165,0.131,0.345,0.157,0.532c0.027-0.104,0.098-0.235,0.193-0.214l-0.206-0.739
				c0.04-0.034,0.09-0.02,0.151,0.014l-0.207-0.153l-0.068,0.173c-0.098,0.083-0.165,0-0.262-0.068
				c-0.09-0.201-0.028-0.283,0.026-0.387l-0.338-0.331c-0.441-0.02,0.062,1.097-0.469,0.566l0.026-0.22
				c-0.158-0.263-0.297-0.636-0.6-0.738c0.344-0.429-0.621-0.67-0.042-0.946c-0.11-1.172-1.146-2.316-1.049-3.6
				c-0.496,0.033-1.233,0.414-1.918,0.296c0.027-0.104,0-0.263,0.11-0.27l-0.366-0.144c0.104,0.15,0.242,0.317,0.131,0.482
				c-0.407-0.318-0.207,0.372-0.429,0.455c-0.164-0.158-0.352-0.29-0.53-0.441l-0.021,0.118c0.441,1.027,0.58,2.242,0.814,3.414
				L470.854,27.693z"/>
			<path fill="#FFFFFF" d="M456.102,12.256l0.082,0.49c-3.075,0.614-6.25,1.234-9.505,1.525c-3.266,0.309-6.681,0.233-9.746-0.725
				l-0.276-0.104c-0.117-0.033-0.3-0.082-0.425-0.117c-0.17-0.049-0.339-0.11-0.486-0.181c-0.327-0.117-0.662-0.254-0.966-0.42
				c-0.624-0.331-1.228-0.751-1.803-1.242c-1.173-0.987-2.296-2.29-3.601-3.725c-1.307-1.415-2.874-3.085-5.259-4.222
				c-1.163-0.553-2.51-0.904-3.808-0.988c-1.298-0.089-2.542,0.069-3.667,0.346c0.018-0.636,0.041-1.283,0.086-1.924
				c-2.662,1.11-4.69,2.614-6.456,4.158c-0.441,0.394-0.88,0.787-1.255,1.18c-0.159,0.158-0.324,0.352-0.51,0.538
				c-0.218,0.206-0.441,0.407-0.642,0.635c-0.814,0.862-1.49,1.78-2.01,2.697c0.461-0.269,0.927-0.518,1.413-0.753
				c-0.251,0.842-0.893,1.939-1.579,3.05c-0.708,1.091-1.483,2.187-2.221,2.924l-0.259-0.448c1.625-2.407-0.248,0.049-0.527-1.71
				l0.142-0.566l-0.384,0.083l-0.134,0.566c-0.176-0.228-0.493-0.428-0.251-0.869l-0.482,0.503c-1.986,0.366-2.897-0.283-3.945-1.36
				c-0.114,0.456,1.289,0.98-0.124,2.098l-0.267-0.483c-0.138,0.704-0.268,1.387-0.379,2.042l-0.986,0.317
				c-0.104,0.717-0.062,1.255-0.579,1.704l0.713,0.69c-1.894,2.255-2.765,5.877-4.883,7.649c0.439,1.034-1.38,1.441-1.638,2.979
				c0.403,0.068,0.82,0.132,1.208,0.187c1.037-0.152,2.013-1.159,2.91-2.401c0.887-1.234,1.735-2.676,2.697-3.724l0.418,0.393
				c-0.168,0.586,0,1.192-0.628,1.662l0.735,0.682c3.573,0.821,2.045-4.648,3.041-5.207c1.973-1.283,0.995,2.296,1.446,1.38
				c-0.159,2.657,3.09-0.324,4.569-0.386c1.667-0.421,3.043-1.842,4.271-3.187c0.61-0.683,1.189-1.366,1.758-1.924
				c0.276-0.283,0.535-0.553,0.811-0.779c0.117-0.104,0.259-0.207,0.375-0.317l0.188-0.118c0.059-0.042,0.183-0.124,0.269-0.172
				c0.106-0.151,0.306-0.379,0.465-0.553c0.111-0.137,0.217-0.283,0.327-0.42c0.21-0.268,0.462-0.531,0.711-0.751
				c0.511-0.469,1.065-0.87,1.631-1.172c1.131-0.615,2.296-0.801,2.915-0.615c0.634,0.194,0.755,0.471,1.365,1.117
				c0.57,0.642,1.391,1.677,2.408,2.684c0.831,1.069,2.938,2.035,5.033,2.924c2.083,0.924,4.024,1.587,4.854,3.428
				c0.307,0.118,0.611,0.221,0.92,0.325c0.11,0.035,0.101,0.035,0.11,0.035c0.021,0.014,0.015,0.034,0.021,0.034
				c0.068,0.034,0.251,0.096,0.363,0.144c0.52,0.188,1.054,0.366,1.583,0.519c1.045,0.303,2.107,0.557,3.163,0.745l-0.177,0.552
				c3.146,0.38,6.229-0.103,8.953-0.745c2.704-0.662,5.146-1.483,7.271-1.924c1.862-0.331,2.304-1.8,3.201-0.283
				c1.766,0.435,3.358,0.207,4.835,0.13c1.482-0.109,2.952-0.026,4.035,0.779c0.316-0.386,0.966-0.503,0.717-1.076
				c-0.772-0.249-1.339-0.772-1.739-1.441c-0.405-0.648-0.675-1.435-0.482-2.089c0.208,0.131,0.386,0.248,0.587,0.386
				c-0.214-0.503-0.477-0.993-0.808-1.476c-0.331,0.049-0.634,0.104-0.938,0.173c-0.124-0.372-0.165-0.642-0.124-0.861
				c-1.353-0.8-2.613-2.125-4.304-2.974C459.239,12.629,457.949,12.759,456.102,12.256z"/>
		</g>
		<g>
			<path fill="#FFFFFF" d="M378.592,110.203l0.028,0.021h0.065c-0.189-0.407-0.007-0.4,0.21-0.372
				c-0.075-0.131-0.169-0.229-0.151-0.318c0.399,0.055,0.124-0.068,0.168-0.419c-0.06,0.034-0.11,0.103-0.201,0.007l0.277-0.325
				c-0.187-0.193-0.379-0.4-0.422-0.62c-0.316-0.414-0.502-1.021-0.751-1.517c-0.11-0.014-0.186-0.048-0.258-0.083
				c-0.118-0.187-0.1-0.317-0.021-0.4c-0.039-0.042-0.079-0.089-0.117-0.124c0.038,0.035,0.081,0.083,0.117,0.124
				c0.039-0.042,0.104-0.089,0.169-0.124c-0.065-0.027-0.148-0.068-0.169-0.165l-0.254,0.151c-0.035-0.034-0.045-0.055-0.045-0.117
				v0.152l0.121,0.068c0.073,0.083,0.073,0.165,0.073,0.235c-0.052,0.076-0.107,0-0.184-0.041l-0.006,0.277
				c0.18,0.379,0.466-0.007,0.449,0.434l-0.114-0.048c-0.039,0.145-0.169,0.228-0.076,0.483c-0.354-0.325-0.059,0.483-0.434-0.035
				c-0.521-0.013-0.666,0.704-1.408,0.435c0.207,0.4,0.718,1.042,0.918,1.587c-0.073-0.035-0.155-0.062-0.201-0.152l0.045,0.255
				c0.065-0.048,0.1-0.117,0.234-0.013c-0.003,0.268,0.3,0.248,0.41,0.434l-0.038,0.331l0.085,0.056
				c0.424-0.152,0.997-0.083,1.48-0.152v-0.023H378.592z"/>
			<path fill="#FFFFFF" d="M367.163,111.693l0.449,0.2c-0.267,1.38-0.56,2.835-0.688,4.407c-0.117,1.573-0.035,3.276,0.386,4.967
				c0.425,1.677,1.188,3.332,2.245,4.738c1.08,1.429,2.418,2.614,3.908,3.415l-1.114,1.512c2.275,0.067,4.479,0.199,6.328-0.69
				l-0.479-0.482c0.831-0.808,2.177-1.173,2.906-0.835l-0.144,0.469c-1.152,0.083,0.051,0.165-0.636,1.4L380.074,131l0.094,0.248
				l0.234-0.199c-0.052,0.27-0.103,0.635-0.327,0.689l0.283,0.11c0.394,1.421,0.276,2.531-0.031,4.001
				c0.224-0.152,0.224-1.635,0.938-1.049l-0.159,0.47c0.31-0.257,0.628-0.525,0.938-0.787l0.317,0.663
				c0.327-0.297,0.535-0.601,0.835-0.4l0.121-0.973c0.658,0.187,1.41,0,2.148-0.193c0.714-0.185,1.421-0.357,2.107-0.089
				c0.145-0.972,1.039,0.165,1.607-0.751l-0.508-0.974c-0.496-0.635-1.105-0.703-1.751-0.668c-0.67,0.013-1.374,0.117-1.956-0.099
				l0.021-0.572c0.235-0.179,0.368-0.648,0.667-0.399v-0.987c-0.352-1.697-0.75-1.49-1.191-0.924
				c-0.417,0.565-0.906,1.476-1.096,1.206c-0.38-0.489-0.222-1.005-0.035-1.392c0.186-0.38,0.404-0.621,0.235-0.566
				c0.409-0.642,0.245-1.255-0.011-1.854c-0.271-0.594-0.635-1.193-0.71-1.767c-0.29-1.18-0.77-1.53-1.314-1.619
				c-0.545-0.104-1.173,0.019-1.597-0.104c-1.114,0.896-2.035,0.441-2.539-0.296c-0.517-0.739-0.6-1.677-0.927-2.028
				c-0.048-0.27-0.92,0-1.521-0.048c-0.624-0.035-0.948-0.331,0.41-1.056c0.083-0.332,0.215-0.622,0.376-0.883l0.558-0.104
				c0.035-0.255-0.283-0.454-0.617-0.806c-0.345-0.366-0.679-0.869-0.715-1.366c0-0.373-1.204-1.158,0.276-0.621
				c0.632-0.131,0.628-0.634,0.628-1.304c-0.024-0.677-0.041-1.512,0.3-1.979c-0.341-0.338-0.593-0.855-0.945-0.891
				c-0.007,0.454-0.341,0.572-0.818,0.49c-0.473-0.068-1.106-0.351-1.635-0.758l0.279-0.118c-0.372-0.131-0.762-0.247-1.165-0.352
				l0.144,0.523c-0.313-0.137-0.555-0.269-0.731-0.399c-0.72,0.151-2-0.103-3.079,0.097
				C368.273,110.755,368.08,111.23,367.163,111.693z"/>
		</g>
		<g>
			<path fill="#FFFFFF" d="M443.604,44.654l-0.021,0.027v0.049c0.365-0.249,0.338-0.117,0.298,0.034
				c0.109-0.083,0.205-0.165,0.274-0.178c-0.096,0.283,0.057,0.048,0.332,0c-0.021-0.048-0.056-0.055,0.021-0.153l0.256,0.104
				c0.164-0.172,0.386-0.359,0.565-0.47c0.421-0.325,0.952-0.621,1.435-0.91c0.028-0.083,0.028-0.165,0.076-0.228
				c0.185-0.118,0.296-0.138,0.373-0.103c0.041-0.035,0.089-0.083,0.117-0.104c-0.027,0.021-0.076,0.069-0.117,0.104
				c0.041,0.028,0.068,0.069,0.089,0.103c0.027-0.041,0.089-0.118,0.165-0.159l-0.124-0.166c0.048-0.033,0.082-0.062,0.11-0.068
				l-0.131,0.035l-0.068,0.116c-0.076,0.069-0.158,0.09-0.229,0.104c-0.067-0.014,0-0.083,0.07-0.152l-0.276,0.069
				c-0.325,0.2-0.007,0.338-0.414,0.448l0.056-0.11c-0.123,0-0.18-0.068-0.413,0.048c0.315-0.351-0.407,0.069,0.067-0.325
				c0.041-0.427-0.559-0.351-0.303-1.02c-0.34,0.255-0.938,0.84-1.381,1.146c0.035-0.056,0.056-0.139,0.124-0.201l-0.214,0.116
				c0.021,0.042,0.089,0.042-0.021,0.18c-0.191,0.055-0.191,0.29-0.386,0.468l-0.262,0.048l-0.055,0.069
				c0.109,0.29-0.014,0.766-0.035,1.09L443.604,44.654z"/>
			<path fill="#FFFFFF" d="M443.327,34.909l-0.207,0.468c-1.952-0.201-3.849-1.034-6.242-1.504c-1.19-0.233-2.498-0.338-3.88-0.15
				c-1.411,0.214-2.845,0.799-3.931,1.725c-0.353-0.518-0.697-1.028-1.021-1.574c-0.762,1.96-1.338,3.897-0.711,5.685
				c0.165-0.11,0.332-0.193,0.511-0.283c0.658,0.91,0.903,1.98,0.525,2.442l-0.432-0.201c0-0.883-0.168,0.007-1.317-0.751
				l-0.19-0.235h-0.245l0.184,0.242c-0.283-0.117-0.617-0.207-0.659-0.394l-0.127,0.207c-1.421,0.069-2.511-0.186-3.918-0.69
				c0.134,0.221,1.568,0.455,0.938,0.972l-0.445-0.213c0.21,0.318,0.445,0.627,0.679,0.917l-0.679,0.18
				c0.245,0.316,0.545,0.503,0.313,0.724l0.952,0.222c-0.249,0.51-0.117,1.117,0,1.69c0.124,0.579,0.217,1.104-0.134,1.606
				c0.955,0.18-0.291,0.752,0.544,1.234l1.039-0.303c1.38-0.615,0.597-1.801,1.172-2.662l0.552,0.082
				c0.159,0.186,0.622,0.324,0.336,0.51l0.979,0.097c1.732-0.117,1.556-0.4,1.044-0.752c-0.534-0.351-1.39-0.806-1.135-0.917
				c0.535-0.235,1.034-0.035,1.38,0.144c0.375,0.187,0.61,0.366,0.562,0.234c0.599,0.366,1.226,0.304,1.84,0.221
				c0.61-0.083,1.205-0.2,1.783-0.138c1.163,0.035,1.497-0.048,1.528-0.185c0.024-0.11-0.217-0.297-0.2-0.394
				c-0.928-0.82-0.583-1.158-0.201-1.006c0.189,0.069,0.386,0.222,0.542,0.38c0.138,0.151,0.227,0.276,0.331,0.241
				c0.107,0.111,0.138-0.758,0.33-1.289c0.176-0.524,0.487-0.69,0.569,0.835c0.221,0.214,0.434,0.435,0.632,0.67l-0.094,0.566
				c0.293,0.124,0.677-0.098,1.163-0.352c0.462-0.248,1.031-0.51,1.489-0.532c0.363,0.014,1.114-1.234,0.57,0.255
				c0.093,0.628,0.516,0.545,1.089,0.4c0.553-0.137,1.231-0.359,1.604-0.186c0.305-0.399,0.739-0.724,0.787-1.042
				c-0.718,0.234-0.39-1.069,0.331-2.229l0.089,0.221c0.117-0.353,0.227-0.731,0.346-1.104l-0.441,0.249
				c0.138-0.317,0.242-0.552,0.358-0.738c-0.076-0.634,0.221-1.855,0.181-2.808C443.898,35.846,443.547,35.756,443.327,34.909z"/>
		</g>
		<path fill="#FFFFFF" d="M400.024,101.636c-5.411-3.283-1.156-11.705-0.042-16.726c0.183-0.836-0.237-1.711-0.841-2.477
			c-0.089-0.13-0.217-0.048-0.334-0.068c-0.183-0.049-0.352-0.131-0.331,0.048c0.424,4.54-1.911,8.243-3.273,11.939
			c-0.57,1.539-1.238,1.981-3.108,0.635c-1.673-1.201,3.049,8.223,5.173,10.56"/>
		<path fill="#FFFFFF" d="M457.646,96.725c-1.352-2.193-2.491-7.374-5.215-9.953c-0.496-0.455,0.033-1.862,0-2.332
			c2.448,2.594,6.29,6.981,6.636,11.181"/>
		<path fill="#FFFFFF" d="M475.414,141.276c0-5.345-0.192-9.126,1.87-13.298c0.345-0.746,0.943-0.898,1.449-1.657
			c0.273-0.414,0.392-1.406,0.681-1.786c0.897-1.172,1.891-1.855,2.648-3.386c0.181-0.366,0.181-0.366-0.041-0.684
			c-0.199-0.296-1.489,1.538-2.331,2.207c-0.248,0.187-0.511,0.083-0.758,0.241c-0.173,0.131-0.346,0.546-0.512,0.649
			c-1.552,1.007-1.695,1.827-1.695-1.621c0-6.159-7.291,12.755-7.341,19.334"/>
		<path fill="#FFFFFF" d="M407.92,140.635c0.297-4.967-5.867-23.838-6.107-19.678c-0.1,2-0.772,3.76-1.992,2.606
			c-1.965-1.876-5.482-2.379-7.443-3.587c-2.408-1.483-3.784-1.855-4.418-2.787c-0.394-0.559-1.145-0.62-1.78-0.819
			c-1.759,0.434,2.174,2.504,5.55,5.256c1.334,1.07,4.132,0.896,5.411,2.152C402.414,128.868,404.717,137.152,407.92,140.635"/>
		<path fill="#FFFFFF" d="M412.236,82.805c0.489-2.034,2.08-6.366-0.38-7.47c0.235,2.227-1.656,8.105,0.011,9.511"/>
		<path fill="#FFFFFF" d="M401.837,134.427c0-2.744-1.296-5.069-2.344-7.952c2.269-0.331,3.441,1.813,3.917,3.73
			c0.181,0.726,0.263,1.498,0.201,2.277c-0.114,0.875-0.235,0.959-1.104,1.006"/>
		<path fill="#FFFFFF" d="M413.708,84.102c3.021,2.483,2.976,7.808,1.11,10.884c-1.255-1.725-2.76-6.457-1.824-8.616
			c0.024,0.235-0.169,0.297-0.201,0.497"/>
		<path fill="#FFFFFF" d="M377.926,82.688c0.313-0.503-1.159-1.875-0.973-2.414c0.093-0.015,0.19-0.035,0.307-0.056
			c0.062-0.166-0.021-0.311,0.02-0.47c1.52,0.704,2.569,3.283,2.374,4.891c-1.204-0.496-1.931-1.835-3.098-2.374"/>
		<g>
			<path fill="#FFFFFF" stroke="#FFFFFF" stroke-width="0.7358" d="M9.06,186.043h7.315v-38.074H9.06v-1.332h15.292v10.153h0.182
				c0.386-0.813,0.942-1.868,1.666-3.123c0.738-1.263,1.725-2.511,2.997-3.706c1.259-1.199,2.846-2.227,4.739-3.075
				c1.9-0.868,4.204-1.305,6.939-1.305c4.176,0,7.576,1.021,10.205,3.044c2.627,2.026,3.95,5.254,3.95,9.689v27.729h7.301v1.338
				H39.545v-1.338h7.308v-30.675c0-2.462-0.586-4.496-1.749-6.076c-1.178-1.587-3.004-2.374-5.465-2.374
				c-2.017,0-3.953,0.436-5.792,1.326c-1.842,0.896-3.448,2.123-4.842,3.709c-1.396,1.587-2.49,3.464-3.276,5.595
				c-0.783,2.158-1.193,4.504-1.193,7.043v21.451h7.318v1.338H9.062v-1.338H9.06z"/>
			<path fill="#FFFFFF" stroke="#FFFFFF" stroke-width="0.7358" d="M110.079,186.34c-0.813,0.621-1.807,1.173-2.93,1.655
				c-1.139,0.469-2.536,0.719-4.177,0.719c-3.039,0-5.239-0.65-6.605-1.966c-1.363-1.276-2.297-3.104-2.801-5.449h-0.194
				c-0.258,0.557-0.593,1.275-1.044,2.145c-0.445,0.842-1.122,1.677-2.045,2.463c-0.917,0.8-2.131,1.456-3.649,2.007
				c-1.514,0.524-3.441,0.801-5.785,0.801c-2.658,0-4.779-0.312-6.363-0.904c-1.59-0.601-2.804-1.338-3.696-2.241
				c-0.894-0.884-1.474-1.876-1.759-2.993c-0.276-1.104-0.435-2.139-0.435-3.076c0-2.214,0.446-4.001,1.339-5.312
				c0.886-1.339,2.021-2.407,3.452-3.193c1.428-0.786,3.01-1.429,4.746-1.944c1.746-0.518,3.508-1.042,5.27-1.609
				c2.1-0.703,3.817-1.302,5.179-1.807c1.351-0.503,2.421-1.138,3.183-1.855c0.756-0.724,1.279-1.641,1.559-2.751
				c0.276-1.104,0.435-2.62,0.435-4.504c0-1.531-0.11-2.891-0.292-4.097c-0.186-1.2-0.538-2.228-1.038-3.084
				c-0.521-0.861-1.238-1.502-2.18-1.952c-0.951-0.44-2.231-0.655-3.808-0.655c-2.077,0-3.808,0.366-5.172,1.09
				c-1.355,0.718-2.032,1.91-2.032,3.565c0,1.084,0.093,2.125,0.269,3.181c0.2,1.05,0.292,1.822,0.292,2.324
				c0,0.89-0.311,1.63-0.941,2.228c-0.643,0.601-1.549,0.903-2.76,0.903c-2.083,0-3.391-0.365-3.884-1.137
				c-0.513-0.753-0.762-1.739-0.762-2.946c0-1.392,0.31-2.711,0.952-3.987c0.631-1.27,1.565-2.393,2.79-3.379
				c1.238-0.973,2.786-1.745,4.646-2.312c1.872-0.573,4.014-0.868,6.417-0.868c2.912,0,5.34,0.379,7.309,1.09
				c1.959,0.744,3.545,1.718,4.752,2.945c1.197,1.249,2.042,2.641,2.552,4.18c0.512,1.559,0.762,3.179,0.762,4.891v23.659
				c0,1.821,0.287,3.062,0.856,3.696c0.562,0.637,1.396,0.938,2.476,0.938c0.693,0,1.415-0.117,2.185-0.372
				c0.748-0.247,1.476-0.619,2.175-1.138L110.079,186.34z M93.467,164.122h-0.186c-0.134,0.819-1.18,1.641-3.127,2.448l-7.125,2.85
				c-2.024,0.833-3.58,1.985-4.652,3.477c-1.065,1.49-1.615,3.332-1.615,5.546c0,0.951,0.101,1.925,0.293,2.945
				c0.183,1.021,0.524,1.924,1.044,2.696c0.503,0.8,1.211,1.455,2.131,1.96c0.915,0.511,2.097,0.751,3.553,0.751
				c2.083,0,3.791-0.434,5.086-1.311c1.3-0.89,2.28-1.992,2.938-3.324c0.669-1.332,1.114-2.78,1.339-4.325
				c0.21-1.553,0.32-2.958,0.32-4.221V164.122L93.467,164.122z"/>
			<path fill="#FFFFFF" stroke="#FFFFFF" stroke-width="0.7358" d="M111.99,146.636h7.304v-12.257
				c0.504,0.201,0.979,0.365,1.425,0.483c0.451,0.132,1.204,0.186,2.283,0.186c0.948,0,1.769-0.103,2.456-0.331
				c0.708-0.207,1.374-0.593,1.997-1.089v13.008h13.491v1.332h-13.491v31.053c0,1.766,0.179,3.2,0.528,4.318
				c0.338,1.11,0.814,1.966,1.382,2.565c0.562,0.6,1.186,1,1.842,1.187c0.669,0.2,1.321,0.29,1.955,0.29
				c2.205,0,4.012-0.82,5.367-2.428c1.355-1.614,2.242-3.471,2.614-5.561l1.327,0.483c-0.189,0.82-0.485,1.738-0.861,2.745
				c-0.376,1.021-0.959,1.993-1.748,2.911c-0.803,0.91-1.831,1.676-3.097,2.275c-1.25,0.594-2.838,0.904-4.739,0.904
				c-4.752,0-8.066-0.933-9.936-2.774c-1.85-1.828-2.793-4.421-2.793-7.766v-30.204h-7.305L111.99,146.636L111.99,146.636z"/>
			<path fill="#FFFFFF" stroke="#FFFFFF" stroke-width="0.7358" d="M196.018,187.381h-15.278v-9.594h-0.19
				c-0.573,1.269-1.248,2.544-2.052,3.849c-0.786,1.289-1.772,2.448-2.931,3.511c-1.18,1.042-2.546,1.896-4.09,2.552
				c-1.542,0.67-3.374,1.016-5.456,1.016c-2.539,0-4.591-0.297-6.173-0.862c-1.586-0.56-2.818-1.173-3.715-1.808
				c-0.441-0.305-0.928-0.71-1.466-1.18c-0.542-0.47-1.028-1.131-1.474-1.951c-0.445-0.821-0.817-1.876-1.13-3.18
				c-0.325-1.297-0.476-2.897-0.476-4.795v-26.968h-7.322v-1.332h15.485v29.156c0,1.641,0.117,3.167,0.324,4.553
				c0.222,1.386,0.656,2.613,1.29,3.662c0.637,1.041,1.461,1.876,2.476,2.463c1.004,0.594,2.338,0.91,3.983,0.91
				c1.39,0,2.826-0.42,4.315-1.229c1.497-0.834,2.86-2.006,4.083-3.531c1.238-1.518,2.269-3.331,3.096-5.456
				c0.817-2.124,1.231-4.518,1.231-7.166v-22.03h-7.215v-1.332h15.381v39.407h7.302L196.018,187.381L196.018,187.381z"/>
			<path fill="#FFFFFF" stroke="#FFFFFF" stroke-width="0.7358" d="M200.87,186.043h7.308v-38.074h-7.308v-1.332h15.285v9.587h0.194
				c0.258-0.951,0.658-2.021,1.231-3.227c0.569-1.208,1.362-2.346,2.376-3.47c1.009-1.104,2.224-2.029,3.649-2.794
				c1.424-0.759,3.146-1.151,5.172-1.151c1.456,0,2.728,0.249,3.801,0.731c1.08,0.469,1.965,1.069,2.659,1.793
				c0.704,0.731,1.207,1.574,1.532,2.524c0.311,0.951,0.462,1.896,0.462,2.836c0,2.103-0.462,3.498-1.425,4.193
				c-0.945,0.689-2.059,1.042-3.315,1.042c-2.803,0-4.177-0.89-4.177-2.662c0-0.58,0.059-1.034,0.185-1.374
				c0.125-0.351,0.267-0.702,0.426-1.055c0.162-0.345,0.303-0.73,0.428-1.186c0.127-0.436,0.186-1.077,0.186-1.891
				c0-2.027-1.106-3.036-3.315-3.036c-1.018,0-2.093,0.36-3.232,1.127c-1.138,0.758-2.204,1.875-3.191,3.33
				c-0.972,1.456-1.8,3.215-2.461,5.271c-0.662,2.062-0.993,4.421-0.993,7.069v21.748h8.252v1.338h-23.731L200.87,186.043
				L200.87,186.043z"/>
			<path fill="#FFFFFF" stroke="#FFFFFF" stroke-width="0.7358" d="M282.345,186.34c-0.827,0.621-1.8,1.173-2.944,1.655
				c-1.138,0.469-2.534,0.719-4.184,0.719c-3.025,0-5.231-0.65-6.591-1.966c-1.362-1.276-2.307-3.104-2.804-5.449h-0.19
				c-0.255,0.557-0.602,1.275-1.048,2.145c-0.445,0.842-1.122,1.677-2.035,2.463c-0.92,0.8-2.141,1.456-3.659,2.007
				c-1.529,0.524-3.453,0.801-5.798,0.801c-2.662,0-4.78-0.312-6.362-0.904c-1.58-0.601-2.818-1.338-3.698-2.241
				c-0.889-0.884-1.476-1.876-1.758-2.993c-0.288-1.104-0.435-2.139-0.435-3.076c0-2.214,0.44-4.001,1.338-5.312
				c0.879-1.339,2.027-2.407,3.459-3.193c1.421-0.786,3.009-1.429,4.752-1.944c1.743-0.518,3.497-1.042,5.273-1.609
				c2.089-0.703,3.814-1.302,5.166-1.807c1.368-0.503,2.436-1.138,3.194-1.855c0.749-0.724,1.272-1.641,1.565-2.751
				c0.281-1.104,0.429-2.62,0.429-4.504c0-1.531-0.1-2.891-0.301-4.097c-0.183-1.2-0.521-2.228-1.038-3.084
				c-0.496-0.861-1.231-1.502-2.186-1.952c-0.953-0.44-2.208-0.655-3.797-0.655c-2.08,0-3.811,0.366-5.167,1.09
				c-1.366,0.718-2.042,1.91-2.042,3.565c0,1.084,0.093,2.125,0.286,3.181c0.189,1.05,0.275,1.822,0.275,2.324
				c0,0.89-0.31,1.63-0.94,2.228c-0.642,0.601-1.563,0.903-2.76,0.903c-2.086,0-3.384-0.365-3.894-1.137
				c-0.503-0.753-0.758-1.739-0.758-2.946c0-1.392,0.316-2.711,0.952-3.987c0.621-1.27,1.565-2.393,2.793-3.379
				c1.231-0.973,2.783-1.745,4.663-2.312c1.859-0.573,4.005-0.868,6.404-0.868c2.915,0,5.349,0.379,7.315,1.09
				c1.96,0.744,3.549,1.718,4.75,2.945c1.211,1.249,2.059,2.641,2.566,4.18c0.503,1.559,0.749,3.179,0.749,4.891v23.659
				c0,1.821,0.293,3.062,0.869,3.696c0.562,0.637,1.387,0.938,2.462,0.938c0.693,0,1.415-0.117,2.183-0.372
				c0.762-0.247,1.49-0.619,2.19-1.138L282.345,186.34z M265.715,164.122h-0.183c-0.121,0.819-1.172,1.641-3.132,2.448l-7.132,2.85
				c-2.017,0.833-3.573,1.985-4.645,3.477c-1.08,1.49-1.618,3.332-1.618,5.546c0,0.951,0.104,1.925,0.292,2.945
				c0.187,1.021,0.538,1.924,1.042,2.696c0.5,0.8,1.217,1.455,2.141,1.96c0.918,0.511,2.093,0.751,3.549,0.751
				c2.1,0,3.79-0.434,5.086-1.311c1.291-0.89,2.286-1.992,2.946-3.324c0.669-1.332,1.106-2.78,1.335-4.325
				c0.217-1.553,0.317-2.958,0.317-4.221L265.715,164.122L265.715,164.122z"/>
			<path fill="#FFFFFF" stroke="#FFFFFF" stroke-width="0.7358" d="M285.291,186.043h7.301v-65.812h-7.301v-1.324h15.475v67.135
				h7.318v1.338h-22.793V186.043z"/>
			<path fill="#FFFFFF" stroke="#FFFFFF" stroke-width="0.7358" d="M313.393,186.043h7.314v-65.812h-7.314v-1.324h15.481v67.135
				h7.308v1.338h-22.789V186.043z"/>
			<path fill="#FFFFFF" stroke="#FFFFFF" stroke-width="0.7358" d="M338.369,146.636h23.265v1.332h-7.967l12.247,29.818
				l12.798-29.818h-7.87v-1.332h14.546v1.332h-5.145l-15.679,36.646c-1.197,2.732-2.335,5.47-3.407,8.223
				c-1.069,2.745-2.149,5.517-3.222,8.304c-0.886,2.276-1.789,4.284-2.651,5.987c-0.897,1.711-1.835,3.11-2.808,4.174
				c-0.98,1.082-2.048,1.89-3.194,2.428c-1.138,0.531-2.456,0.799-3.986,0.799c-1.833,0-3.304-0.283-4.405-0.854
				c-1.113-0.565-1.99-1.221-2.618-1.986c-0.637-0.757-1.044-1.559-1.231-2.379c-0.201-0.821-0.292-1.523-0.292-2.09
				c0-1.58,0.459-2.767,1.339-3.553c0.878-0.807,1.958-1.188,3.214-1.188c0.456,0,0.924,0.048,1.435,0.132
				c0.508,0.097,0.986,0.269,1.414,0.531c0.449,0.241,0.827,0.593,1.146,1.042c0.31,0.433,0.475,0.986,0.475,1.619
				c0,0.877-0.272,1.725-0.804,2.512c-0.528,0.786-0.817,1.661-0.817,2.614c0,0.819,0.226,1.344,0.683,1.607
				c0.43,0.255,1.042,0.386,1.803,0.386c1,0,1.938-0.234,2.794-0.716c0.861-0.471,1.696-1.255,2.51-2.324
				c0.828-1.076,1.656-2.483,2.477-4.236c0.82-1.73,1.727-3.869,2.745-6.4l4.179-10.645l-16.434-40.633h-6.542v-1.332H338.369z"/>
			<path fill="#FFFFFF" stroke="#FFFFFF" stroke-width="0.7358" d="M490.969,186.043h7.317v-65.812h-7.317v-1.324h15.478v37.315
				h0.187c0.317-0.805,0.855-1.854,1.628-3.083c0.745-1.233,1.78-2.407,3.076-3.523c1.297-1.097,2.87-2.049,4.745-2.835
				c1.863-0.801,4.091-1.201,6.705-1.201c4.174,0,7.56,1.021,10.195,3.044c2.62,2.026,3.958,5.254,3.958,9.689v27.729h7.312v1.338
				h-22.797v-1.338h7.306v-30.674c0-2.463-0.588-4.497-1.76-6.077c-1.179-1.587-2.986-2.374-5.449-2.374
				c-2.041,0-3.965,0.436-5.807,1.326c-1.829,0.896-3.451,2.123-4.851,3.709c-1.394,1.587-2.47,3.464-3.255,5.595
				c-0.787,2.159-1.193,4.504-1.193,7.043v21.451h7.305v1.338h-22.782V186.043L490.969,186.043z"/>
			<path fill="#FFFFFF" stroke="#FFFFFF" stroke-width="0.7358" d="M543.757,146.636h23.267v1.332h-7.981l12.265,29.818
				l12.822-29.818h-7.884v-1.332h14.526v1.332h-5.132l-15.678,36.646c-1.194,2.732-2.325,5.47-3.401,8.223
				c-1.077,2.745-2.151,5.517-3.221,8.304c-0.897,2.276-1.772,4.284-2.67,5.987c-0.883,1.711-1.835,3.11-2.801,4.174
				c-0.979,1.082-2.041,1.89-3.174,2.428c-1.145,0.531-2.469,0.799-4,0.799c-1.821,0-3.311-0.283-4.407-0.854
				c-1.124-0.565-1.98-1.221-2.614-1.986c-0.647-0.757-1.048-1.559-1.233-2.379c-0.194-0.821-0.298-1.523-0.298-2.09
				c0-1.58,0.462-2.767,1.345-3.553c0.877-0.807,1.966-1.188,3.215-1.188c0.462,0,0.924,0.048,1.435,0.132
				c0.504,0.097,1.001,0.269,1.414,0.531c0.441,0.241,0.82,0.593,1.145,1.042c0.304,0.433,0.496,0.986,0.496,1.619
				c0,0.877-0.289,1.725-0.84,2.512c-0.525,0.786-0.801,1.661-0.801,2.614c0,0.819,0.234,1.344,0.677,1.607
				c0.428,0.255,1.05,0.386,1.794,0.386c1.021,0,1.938-0.234,2.821-0.716c0.841-0.471,1.689-1.255,2.497-2.324
				c0.82-1.076,1.661-2.483,2.489-4.236c0.807-1.73,1.739-3.869,2.745-6.4l4.173-10.645l-16.417-40.633h-6.573V146.636
				L543.757,146.636z"/>
			<path fill="#FFFFFF" stroke="#FFFFFF" stroke-width="0.7358" d="M592.564,212.641h7.317v-64.673h-7.317v-1.332h15.312v7.981
				h0.166c0.952-2.663,2.523-4.855,4.711-6.608c2.187-1.731,5.015-2.613,8.498-2.613c2.725,0,5.282,0.586,7.704,1.759
				c2.388,1.173,4.513,2.724,6.359,4.663c1.835,1.931,3.297,4.193,4.347,6.788c1.089,2.593,1.629,5.317,1.629,8.166
				c0,2.925-0.566,5.691-1.657,8.306c-1.104,2.641-2.606,4.952-4.505,6.979c-1.917,2.027-4.111,3.636-6.6,4.85
				c-2.512,1.207-5.161,1.808-7.954,1.808c-2.131,0-3.959-0.379-5.449-1.097c-1.491-0.737-2.71-1.594-3.648-2.566
				c-0.953-0.972-1.684-2.007-2.193-3.042c-0.511-1.041-0.849-1.877-1.035-2.511h-0.207v33.144h7.318v1.325h-22.797L592.564,212.641
				L592.564,212.641z M631.812,165.632c0-2.911-0.166-5.538-0.497-7.836c-0.331-2.311-0.882-4.298-1.655-5.945
				c-0.808-1.641-1.897-2.897-3.325-3.793c-1.441-0.891-3.242-1.325-5.449-1.325c-2.357,0-4.276,0.414-5.821,1.235
				c-1.504,0.826-2.732,1.875-3.69,3.131c-0.697,0.89-1.255,1.842-1.656,2.85c-0.428,1.021-0.752,2.221-1.007,3.601
				c-0.248,1.399-0.42,3.007-0.523,4.813c-0.09,1.793-0.145,3.925-0.145,6.402c0,2.09,0.165,4.234,0.496,6.462
				c0.305,2.207,0.897,4.215,1.794,6.022c0.876,1.792,2.138,3.283,3.767,4.406c1.593,1.138,3.731,1.725,6.399,1.725
				c2.595,0,4.645-0.503,6.161-1.524c1.51-1.007,2.67-2.475,3.441-4.373c0.753-1.889,1.214-4.187,1.409-6.89
				C631.701,171.908,631.812,168.93,631.812,165.632z"/>
			<path fill="#FFFFFF" stroke="#FFFFFF" stroke-width="0.7358" d="M648.6,186.043h7.319v-38.074H648.6v-1.332h15.287v10.153h0.206
				c0.373-0.813,0.918-1.868,1.643-3.123c0.731-1.263,1.724-2.511,3.007-3.706c1.27-1.199,2.844-2.227,4.739-3.075
				c1.896-0.868,4.222-1.305,6.938-1.305c4.174,0,7.573,1.021,10.21,3.044c2.613,2.026,3.932,5.254,3.932,9.689v27.729h7.305v1.338
				h-22.77v-1.338h7.299v-30.675c0-2.462-0.58-4.496-1.753-6.076c-1.179-1.587-2.986-2.374-5.464-2.374
				c-2.027,0-3.95,0.436-5.793,1.326c-1.828,0.896-3.457,2.123-4.844,3.709c-1.399,1.587-2.462,3.464-3.29,5.595
				c-0.772,2.158-1.159,4.504-1.159,7.043v21.451h7.299v1.338h-22.791L648.6,186.043L648.6,186.043z"/>
			<path fill="#FFFFFF" stroke="#FFFFFF" stroke-width="0.7358" d="M708.514,167.053c0-3.11,0.682-5.986,2.05-8.648
				c1.337-2.649,3.103-4.946,5.22-6.884c2.117-1.925,4.505-3.429,7.119-4.505c2.635-1.083,5.2-1.62,7.753-1.62
				c2.519,0,5.098,0.537,7.732,1.62c2.621,1.076,4.979,2.58,7.11,4.505c2.139,1.938,3.869,4.234,5.235,6.884
				c1.353,2.661,2.049,5.538,2.049,8.648c0,2.993-0.655,5.781-1.924,8.409c-1.242,2.628-2.927,4.904-4.988,6.891
				c-2.034,1.96-4.4,3.504-7.063,4.643c-2.654,1.139-5.38,1.719-8.152,1.719c-2.8,0-5.524-0.58-8.167-1.719
				c-2.663-1.139-5.028-2.683-7.077-4.643c-2.076-1.985-3.725-4.263-4.993-6.891C709.143,172.834,708.514,170.046,708.514,167.053z
				 M718.025,167.053c0,4.504,0.325,8.085,1.035,10.734c0.704,2.647,1.607,4.689,2.752,6.138c1.146,1.408,2.463,2.353,4.002,2.786
				c1.51,0.436,3.124,0.669,4.842,0.669c1.697,0,3.317-0.233,4.835-0.669c1.518-0.435,2.855-1.379,3.993-2.786
				c1.14-1.448,2.063-3.49,2.745-6.138c0.697-2.649,1.049-6.229,1.049-10.734c0-3.8-0.249-6.98-0.766-9.539
				c-0.505-2.566-1.27-4.656-2.317-6.275c-1.041-1.621-2.373-2.768-3.932-3.471c-1.593-0.683-3.483-1.035-5.607-1.035
				c-2.181,0-4.029,0.353-5.614,1.035c-1.587,0.703-2.897,1.849-3.939,3.471c-1.048,1.619-1.828,3.709-2.324,6.275
				C718.275,160.072,718.025,163.253,718.025,167.053z"/>
			<path fill="#FFFFFF" stroke="#FFFFFF" stroke-width="0.7358" d="M762.364,174.083h1.028c0.462,1.523,1.035,3.048,1.724,4.606
				c0.683,1.552,1.621,2.979,2.78,4.27c1.213,1.305,2.628,2.359,4.353,3.193c1.703,0.808,3.759,1.229,6.159,1.229
				c2.022,0,3.836-0.634,5.422-1.848c1.587-1.249,2.359-3.256,2.359-6.036c0-2.4-0.614-4.104-1.827-5.091
				c-1.249-0.973-2.677-1.759-4.319-2.324l-7.429-2.552c-0.952-0.317-1.959-0.731-3.076-1.2c-1.125-0.476-2.152-1.138-3.098-1.993
				c-0.938-0.842-1.724-1.938-2.317-3.269c-0.599-1.333-0.918-3.044-0.918-5.133c0-1.766,0.339-3.421,1.044-4.938
				c0.703-1.511,1.667-2.85,2.862-3.987c1.213-1.151,2.655-2.042,4.317-2.648c1.669-0.635,3.497-0.966,5.471-0.966
				c1.406,0,2.51,0.117,3.352,0.331c0.849,0.22,1.601,0.455,2.228,0.676c0.662,0.214,1.234,0.435,1.739,0.67
				c0.496,0.214,1.089,0.317,1.786,0.317c0.703,0,1.193-0.242,1.524-0.753h1.042v10.83h-1.042c-0.434-1.394-0.952-2.744-1.524-4.042
				c-0.553-1.296-1.256-2.441-2.042-3.463c-0.799-1.006-1.759-1.793-2.925-2.372c-1.187-0.573-2.547-0.855-4.139-0.855
				c-3.05,0-5.394,0.683-7.099,2.043c-1.669,1.358-2.496,3.179-2.496,5.47c0,2.027,0.703,3.552,2.146,4.593
				c1.406,1.049,3.503,2.022,6.284,2.897l6.939,2.276c2.979,1.021,5.415,2.407,7.333,4.193c1.883,1.76,2.834,4.091,2.834,7.023
				c0,1.702-0.323,3.379-0.986,5.035c-0.677,1.642-1.648,3.076-2.945,4.317c-1.297,1.229-2.883,2.214-4.745,2.993
				c-1.855,0.746-4.001,1.14-6.409,1.14c-1.393,0-2.676-0.146-3.848-0.436c-1.173-0.283-2.242-0.587-3.236-0.896
				c-0.972-0.324-1.875-0.634-2.696-0.91c-0.813-0.283-1.599-0.428-2.289-0.428s-1.209,0.145-1.504,0.428
				c-0.324,0.276-0.587,0.586-0.786,0.91h-1.028v-13.301H762.364z"/>
			<path fill="#FFFFFF" stroke="#FFFFFF" stroke-width="0.7358" d="M800.149,186.043h7.333v-38.074h-7.333v-1.332h15.499v39.407
				h7.305v1.338h-22.804V186.043z M806.329,124.516c0-1.4,0.483-2.58,1.477-3.565c0.966-0.987,2.172-1.47,3.56-1.47
				c1.386,0,2.594,0.482,3.564,1.47c0.974,0.985,1.463,2.165,1.463,3.565c0,1.393-0.489,2.579-1.463,3.553
				c-0.971,0.986-2.179,1.476-3.564,1.476c-1.388,0-2.594-0.489-3.56-1.476C806.812,127.095,806.329,125.908,806.329,124.516z"/>
			<path fill="#FFFFFF" stroke="#FFFFFF" stroke-width="0.7358" d="M830.933,174.083h1.043c0.435,1.523,1.007,3.048,1.702,4.606
				c0.69,1.552,1.644,2.979,2.802,4.27c1.172,1.305,2.62,2.359,4.318,3.193c1.71,0.808,3.78,1.229,6.173,1.229
				c2.027,0,3.836-0.634,5.422-1.848c1.566-1.249,2.366-3.256,2.366-6.036c0-2.4-0.606-4.104-1.855-5.091
				c-1.242-0.973-2.663-1.759-4.319-2.324l-7.4-2.552c-0.952-0.317-1.98-0.731-3.097-1.2c-1.104-0.476-2.124-1.138-3.097-1.993
				c-0.938-0.842-1.711-1.938-2.297-3.269c-0.614-1.333-0.918-3.044-0.918-5.133c0-1.766,0.352-3.421,1.049-4.938
				c0.703-1.511,1.641-2.85,2.848-3.987c1.193-1.151,2.648-2.042,4.325-2.648c1.684-0.635,3.476-0.966,5.449-0.966
				c1.393,0,2.531,0.117,3.386,0.331c0.848,0.22,1.592,0.455,2.222,0.676c0.627,0.214,1.206,0.435,1.71,0.67
				c0.505,0.214,1.104,0.317,1.82,0.317c0.677,0,1.194-0.242,1.497-0.753h1.056v10.83h-1.056c-0.435-1.394-0.945-2.744-1.497-4.042
				c-0.586-1.296-1.255-2.441-2.055-3.463c-0.8-1.006-1.772-1.793-2.959-2.372c-1.159-0.573-2.532-0.855-4.124-0.855
				c-3.028,0-5.401,0.683-7.058,2.043c-1.71,1.358-2.532,3.179-2.532,5.47c0,2.027,0.718,3.552,2.147,4.593
				c1.419,1.049,3.523,2.022,6.311,2.897l6.939,2.276c2.979,1.021,5.408,2.407,7.305,4.193c1.904,1.76,2.843,4.091,2.843,7.023
				c0,1.702-0.331,3.379-1.001,5.035c-0.654,1.642-1.656,3.076-2.931,4.317c-1.318,1.229-2.885,2.214-4.752,2.993
				c-1.863,0.746-4.016,1.14-6.416,1.14c-1.4,0-2.661-0.146-3.848-0.436c-1.172-0.283-2.229-0.587-3.215-0.896
				c-0.972-0.324-1.876-0.634-2.725-0.91c-0.819-0.283-1.578-0.428-2.262-0.428c-0.689,0-1.207,0.145-1.537,0.428
				c-0.304,0.276-0.538,0.586-0.738,0.91h-1.043v-13.301H830.933z"/>
		</g>
	</g>
</g>
</svg>
