<?xml version="1.0" encoding="UTF-8" standalone="no"?>
<!DOCTYPE svg PUBLIC "-//W3C//DTD SVG 1.1//EN" "http://www.w3.org/Graphics/SVG/1.1/DTD/svg11.dtd">
<svg width="100%" height="100%" viewBox="0 0 251 211" version="1.1" xmlns="http://www.w3.org/2000/svg" xmlns:xlink="http://www.w3.org/1999/xlink" xml:space="preserve" xmlns:serif="http://www.serif.com/" style="fill-rule:evenodd;clip-rule:evenodd;stroke-linejoin:round;stroke-miterlimit:2;">
    <g transform="matrix(1,0,0,1,-484.795,-261.358)">
        <g transform="matrix(-1.50427,0.242616,-0.192652,-1.19448,1311.36,378.001)">
            <path d="M486.328,71.13C521.993,12.584 398.929,-6.941 381.976,23.119C371.996,40.816 386.725,59.135 409.223,80.416C431.812,101.784 475.074,89.603 486.328,71.13Z" style="fill:url(#_Linear1);"/>
        </g>
        <g transform="matrix(1,0,0,1,105.998,306.371)">
            <path d="M486.328,71.13C521.993,12.584 398.929,-6.941 381.976,23.119C371.996,40.816 386.725,59.135 409.223,80.416C431.812,101.784 475.074,89.603 486.328,71.13Z" style="fill:rgb(72,109,108);"/>
        </g>
        <g transform="matrix(-0.833124,0,0,0.808902,970.463,253.963)">
            <path d="M486.328,71.13C521.993,12.584 398.929,-6.941 381.976,23.119C371.996,40.816 386.725,59.135 409.223,80.416C431.812,101.784 475.074,89.603 486.328,71.13Z" style="fill:rgb(72,109,108);"/>
        </g>
        <g transform="matrix(1,0,0,1,-130.922,232.871)">
            <g transform="matrix(25,0,0,25,710.894,69.5465)">
                <path d="M0.312,-0.515C0.354,-0.515 0.388,-0.506 0.414,-0.488C0.44,-0.47 0.459,-0.446 0.472,-0.415C0.484,-0.384 0.49,-0.35 0.49,-0.313L0.49,-0.03C0.49,-0.022 0.487,-0.015 0.481,-0.009C0.475,-0.003 0.468,0 0.46,0C0.451,0 0.443,-0.003 0.438,-0.009C0.433,-0.015 0.43,-0.022 0.43,-0.03L0.43,-0.313C0.43,-0.34 0.426,-0.365 0.418,-0.387C0.409,-0.409 0.396,-0.427 0.377,-0.44C0.358,-0.452 0.333,-0.459 0.302,-0.459C0.274,-0.459 0.248,-0.452 0.223,-0.44C0.198,-0.427 0.177,-0.409 0.162,-0.387C0.147,-0.365 0.139,-0.34 0.139,-0.313L0.139,-0.03C0.139,-0.022 0.136,-0.015 0.13,-0.009C0.124,-0.003 0.117,0 0.109,0C0.1,0 0.092,-0.003 0.087,-0.009C0.082,-0.015 0.079,-0.022 0.079,-0.03L0.079,-0.71C0.079,-0.718 0.082,-0.725 0.088,-0.731C0.093,-0.737 0.1,-0.74 0.109,-0.74C0.118,-0.74 0.125,-0.737 0.131,-0.731C0.136,-0.725 0.139,-0.718 0.139,-0.71L0.139,-0.386L0.116,-0.351C0.117,-0.372 0.124,-0.392 0.136,-0.412C0.147,-0.431 0.162,-0.449 0.181,-0.465C0.2,-0.48 0.22,-0.493 0.243,-0.502C0.266,-0.511 0.289,-0.515 0.312,-0.515Z" style="fill:white;fill-rule:nonzero;"/>
            </g>
            <g transform="matrix(25,0,0,25,725.844,69.5465)">
                <path d="M0.306,0.01C0.255,0.01 0.209,-0.001 0.17,-0.023C0.131,-0.045 0.1,-0.076 0.078,-0.115C0.056,-0.154 0.045,-0.2 0.045,-0.253C0.045,-0.31 0.056,-0.358 0.079,-0.398C0.101,-0.438 0.13,-0.469 0.166,-0.491C0.201,-0.512 0.239,-0.523 0.279,-0.523C0.308,-0.523 0.337,-0.518 0.365,-0.508C0.392,-0.497 0.417,-0.482 0.438,-0.462C0.459,-0.441 0.477,-0.416 0.49,-0.387C0.503,-0.358 0.51,-0.324 0.511,-0.285C0.511,-0.277 0.508,-0.27 0.502,-0.265C0.496,-0.259 0.489,-0.256 0.481,-0.256L0.08,-0.256L0.068,-0.31L0.462,-0.31L0.449,-0.298L0.449,-0.318C0.446,-0.349 0.435,-0.376 0.418,-0.398C0.401,-0.42 0.38,-0.437 0.356,-0.448C0.331,-0.459 0.306,-0.465 0.279,-0.465C0.259,-0.465 0.239,-0.461 0.218,-0.453C0.197,-0.445 0.178,-0.433 0.161,-0.416C0.143,-0.399 0.13,-0.377 0.119,-0.351C0.108,-0.324 0.103,-0.293 0.103,-0.257C0.103,-0.218 0.111,-0.182 0.127,-0.15C0.143,-0.118 0.166,-0.093 0.196,-0.074C0.226,-0.055 0.262,-0.046 0.305,-0.046C0.328,-0.046 0.348,-0.049 0.367,-0.056C0.386,-0.063 0.402,-0.072 0.417,-0.083C0.431,-0.094 0.443,-0.105 0.452,-0.117C0.459,-0.123 0.466,-0.126 0.473,-0.126C0.48,-0.126 0.487,-0.123 0.492,-0.118C0.497,-0.113 0.499,-0.107 0.499,-0.1C0.499,-0.092 0.496,-0.085 0.489,-0.079C0.469,-0.055 0.443,-0.034 0.411,-0.017C0.379,0.001 0.344,0.01 0.306,0.01Z" style="fill:white;fill-rule:nonzero;"/>
            </g>
            <g transform="matrix(25,0,0,25,740.494,69.5465)">
                <path d="M0.145,-0.03C0.145,-0.022 0.142,-0.015 0.136,-0.009C0.13,-0.003 0.123,0 0.115,0C0.106,0 0.099,-0.003 0.094,-0.009C0.088,-0.015 0.085,-0.022 0.085,-0.03L0.085,-0.71C0.085,-0.718 0.088,-0.725 0.094,-0.731C0.1,-0.737 0.107,-0.74 0.115,-0.74C0.124,-0.74 0.131,-0.737 0.137,-0.731C0.142,-0.725 0.145,-0.718 0.145,-0.71L0.145,-0.03Z" style="fill:white;fill-rule:nonzero;"/>
            </g>
            <g transform="matrix(25,0,0,25,746.994,69.5465)">
                <path d="M0.322,-0.515C0.367,-0.515 0.408,-0.504 0.443,-0.482C0.478,-0.459 0.505,-0.429 0.526,-0.39C0.547,-0.351 0.557,-0.306 0.557,-0.255C0.557,-0.204 0.547,-0.159 0.526,-0.12C0.505,-0.081 0.477,-0.05 0.442,-0.027C0.407,-0.004 0.367,0.007 0.323,0.007C0.3,0.007 0.278,0.004 0.257,-0.004C0.236,-0.011 0.216,-0.02 0.199,-0.032C0.182,-0.044 0.166,-0.058 0.153,-0.075C0.14,-0.091 0.129,-0.109 0.121,-0.128L0.139,-0.141L0.139,0.17C0.139,0.178 0.136,0.185 0.131,0.191C0.125,0.197 0.118,0.2 0.109,0.2C0.1,0.2 0.093,0.197 0.088,0.191C0.082,0.185 0.079,0.178 0.079,0.17L0.079,-0.482C0.079,-0.491 0.082,-0.498 0.087,-0.504C0.092,-0.51 0.1,-0.513 0.109,-0.513C0.118,-0.513 0.125,-0.51 0.131,-0.504C0.136,-0.498 0.139,-0.491 0.139,-0.482L0.139,-0.374L0.125,-0.382C0.132,-0.403 0.141,-0.421 0.155,-0.438C0.168,-0.454 0.183,-0.468 0.2,-0.48C0.217,-0.491 0.236,-0.5 0.257,-0.506C0.278,-0.512 0.299,-0.515 0.322,-0.515ZM0.317,-0.459C0.281,-0.459 0.249,-0.45 0.222,-0.433C0.195,-0.415 0.173,-0.391 0.158,-0.361C0.142,-0.33 0.134,-0.295 0.134,-0.255C0.134,-0.216 0.142,-0.18 0.158,-0.149C0.173,-0.118 0.195,-0.093 0.222,-0.076C0.249,-0.058 0.281,-0.049 0.317,-0.049C0.352,-0.049 0.384,-0.058 0.411,-0.076C0.438,-0.093 0.459,-0.118 0.475,-0.149C0.491,-0.18 0.499,-0.216 0.499,-0.255C0.499,-0.294 0.491,-0.329 0.475,-0.36C0.459,-0.391 0.438,-0.415 0.411,-0.433C0.384,-0.45 0.352,-0.459 0.317,-0.459Z" style="fill:white;fill-rule:nonzero;"/>
            </g>
        </g>
        <g transform="matrix(1,0,0,1,-138.406,288.953)">
            <g transform="matrix(41.6667,0,0,41.6667,656.927,80.7569)">
                <path d="M0.309,-0.515C0.35,-0.515 0.386,-0.504 0.415,-0.483C0.444,-0.461 0.464,-0.429 0.475,-0.386L0.461,-0.382L0.467,-0.4C0.476,-0.42 0.49,-0.439 0.511,-0.457C0.531,-0.474 0.554,-0.488 0.58,-0.499C0.606,-0.51 0.632,-0.515 0.659,-0.515C0.701,-0.515 0.735,-0.506 0.761,-0.488C0.786,-0.47 0.805,-0.446 0.817,-0.416C0.828,-0.385 0.834,-0.351 0.834,-0.313L0.834,-0.03C0.834,-0.022 0.831,-0.015 0.826,-0.009C0.82,-0.003 0.813,0 0.804,0C0.795,0 0.788,-0.003 0.783,-0.009C0.777,-0.015 0.774,-0.022 0.774,-0.03L0.774,-0.31C0.774,-0.337 0.77,-0.362 0.761,-0.385C0.752,-0.408 0.739,-0.426 0.72,-0.439C0.701,-0.452 0.676,-0.459 0.645,-0.459C0.618,-0.459 0.592,-0.452 0.567,-0.439C0.542,-0.426 0.521,-0.408 0.506,-0.385C0.49,-0.362 0.482,-0.337 0.482,-0.31L0.482,-0.03C0.482,-0.022 0.479,-0.015 0.474,-0.009C0.468,-0.003 0.461,0 0.452,0C0.443,0 0.436,-0.003 0.431,-0.009C0.425,-0.015 0.422,-0.022 0.422,-0.03L0.422,-0.313C0.422,-0.34 0.418,-0.365 0.41,-0.387C0.402,-0.409 0.389,-0.427 0.371,-0.44C0.353,-0.452 0.329,-0.459 0.298,-0.459C0.271,-0.459 0.245,-0.452 0.221,-0.44C0.196,-0.427 0.177,-0.409 0.162,-0.387C0.147,-0.365 0.139,-0.34 0.139,-0.313L0.139,-0.03C0.139,-0.022 0.136,-0.015 0.13,-0.009C0.124,-0.003 0.117,0 0.109,0C0.1,0 0.092,-0.003 0.087,-0.009C0.082,-0.015 0.079,-0.022 0.079,-0.03L0.079,-0.478C0.079,-0.486 0.082,-0.493 0.088,-0.499C0.093,-0.505 0.1,-0.508 0.109,-0.508C0.118,-0.508 0.125,-0.505 0.131,-0.499C0.136,-0.493 0.139,-0.486 0.139,-0.478L0.139,-0.385L0.112,-0.348C0.114,-0.368 0.121,-0.388 0.132,-0.408C0.142,-0.428 0.157,-0.446 0.175,-0.462C0.193,-0.478 0.214,-0.491 0.237,-0.501C0.26,-0.51 0.284,-0.515 0.309,-0.515Z" style="fill:white;fill-rule:nonzero;"/>
            </g>
            <g transform="matrix(41.6667,0,0,41.6667,696.177,80.7569)">
                <path d="M0.306,0.01C0.255,0.01 0.209,-0.001 0.17,-0.023C0.131,-0.045 0.1,-0.076 0.078,-0.115C0.056,-0.154 0.045,-0.2 0.045,-0.253C0.045,-0.31 0.056,-0.358 0.079,-0.398C0.101,-0.438 0.13,-0.469 0.166,-0.491C0.201,-0.512 0.239,-0.523 0.279,-0.523C0.308,-0.523 0.337,-0.518 0.365,-0.508C0.392,-0.497 0.417,-0.482 0.438,-0.462C0.459,-0.441 0.477,-0.416 0.49,-0.387C0.503,-0.358 0.51,-0.324 0.511,-0.285C0.511,-0.277 0.508,-0.27 0.502,-0.265C0.496,-0.259 0.489,-0.256 0.481,-0.256L0.08,-0.256L0.068,-0.31L0.462,-0.31L0.449,-0.298L0.449,-0.318C0.446,-0.349 0.435,-0.376 0.418,-0.398C0.401,-0.42 0.38,-0.437 0.356,-0.448C0.331,-0.459 0.306,-0.465 0.279,-0.465C0.259,-0.465 0.239,-0.461 0.218,-0.453C0.197,-0.445 0.178,-0.433 0.161,-0.416C0.143,-0.399 0.13,-0.377 0.119,-0.351C0.108,-0.324 0.103,-0.293 0.103,-0.257C0.103,-0.218 0.111,-0.182 0.127,-0.15C0.143,-0.118 0.166,-0.093 0.196,-0.074C0.226,-0.055 0.262,-0.046 0.305,-0.046C0.328,-0.046 0.348,-0.049 0.367,-0.056C0.386,-0.063 0.402,-0.072 0.417,-0.083C0.431,-0.094 0.443,-0.105 0.452,-0.117C0.459,-0.123 0.466,-0.126 0.473,-0.126C0.48,-0.126 0.487,-0.123 0.492,-0.118C0.497,-0.113 0.499,-0.107 0.499,-0.1C0.499,-0.092 0.496,-0.085 0.489,-0.079C0.469,-0.055 0.443,-0.034 0.411,-0.017C0.379,0.001 0.344,0.01 0.306,0.01Z" style="fill:white;fill-rule:nonzero;"/>
            </g>
        </g>
        <g transform="matrix(1,0,0,1,-104.829,353.706)">
            <g transform="matrix(50,0,0,50,692.419,94.018)">
                <path d="M0.109,0C0.1,0 0.092,-0.003 0.087,-0.009C0.082,-0.015 0.079,-0.022 0.079,-0.03L0.079,-0.478C0.079,-0.486 0.082,-0.493 0.088,-0.499C0.093,-0.505 0.1,-0.508 0.109,-0.508C0.118,-0.508 0.125,-0.505 0.131,-0.499C0.136,-0.493 0.139,-0.486 0.139,-0.478L0.139,-0.328L0.124,-0.325C0.126,-0.348 0.132,-0.372 0.142,-0.395C0.151,-0.418 0.164,-0.439 0.181,-0.458C0.198,-0.477 0.218,-0.493 0.241,-0.505C0.264,-0.517 0.289,-0.523 0.318,-0.523C0.33,-0.523 0.342,-0.521 0.353,-0.516C0.364,-0.51 0.37,-0.502 0.37,-0.491C0.37,-0.481 0.367,-0.473 0.362,-0.468C0.357,-0.463 0.35,-0.46 0.343,-0.46C0.337,-0.46 0.331,-0.462 0.324,-0.465C0.317,-0.468 0.307,-0.47 0.296,-0.47C0.277,-0.47 0.259,-0.464 0.24,-0.454C0.221,-0.443 0.204,-0.428 0.189,-0.409C0.174,-0.39 0.162,-0.37 0.153,-0.347C0.143,-0.324 0.139,-0.3 0.139,-0.277L0.139,-0.03C0.139,-0.022 0.136,-0.015 0.13,-0.009C0.124,-0.003 0.117,0 0.109,0Z" style="fill:white;fill-rule:nonzero;"/>
            </g>
            <g transform="matrix(50,0,0,50,713.169,94.018)">
                <path d="M0.306,0.01C0.255,0.01 0.209,-0.001 0.17,-0.023C0.131,-0.045 0.1,-0.076 0.078,-0.115C0.056,-0.154 0.045,-0.2 0.045,-0.253C0.045,-0.31 0.056,-0.358 0.079,-0.398C0.101,-0.438 0.13,-0.469 0.166,-0.491C0.201,-0.512 0.239,-0.523 0.279,-0.523C0.308,-0.523 0.337,-0.518 0.365,-0.508C0.392,-0.497 0.417,-0.482 0.438,-0.462C0.459,-0.441 0.477,-0.416 0.49,-0.387C0.503,-0.358 0.51,-0.324 0.511,-0.285C0.511,-0.277 0.508,-0.27 0.502,-0.265C0.496,-0.259 0.489,-0.256 0.481,-0.256L0.08,-0.256L0.068,-0.31L0.462,-0.31L0.449,-0.298L0.449,-0.318C0.446,-0.349 0.435,-0.376 0.418,-0.398C0.401,-0.42 0.38,-0.437 0.356,-0.448C0.331,-0.459 0.306,-0.465 0.279,-0.465C0.259,-0.465 0.239,-0.461 0.218,-0.453C0.197,-0.445 0.178,-0.433 0.161,-0.416C0.143,-0.399 0.13,-0.377 0.119,-0.351C0.108,-0.324 0.103,-0.293 0.103,-0.257C0.103,-0.218 0.111,-0.182 0.127,-0.15C0.143,-0.118 0.166,-0.093 0.196,-0.074C0.226,-0.055 0.262,-0.046 0.305,-0.046C0.328,-0.046 0.348,-0.049 0.367,-0.056C0.386,-0.063 0.402,-0.072 0.417,-0.083C0.431,-0.094 0.443,-0.105 0.452,-0.117C0.459,-0.123 0.466,-0.126 0.473,-0.126C0.48,-0.126 0.487,-0.123 0.492,-0.118C0.497,-0.113 0.499,-0.107 0.499,-0.1C0.499,-0.092 0.496,-0.085 0.489,-0.079C0.469,-0.055 0.443,-0.034 0.411,-0.017C0.379,0.001 0.344,0.01 0.306,0.01Z" style="fill:white;fill-rule:nonzero;"/>
            </g>
            <g transform="matrix(50,0,0,50,742.469,94.018)">
                <path d="M0.145,-0.03C0.145,-0.022 0.142,-0.015 0.136,-0.009C0.13,-0.003 0.123,0 0.115,0C0.106,0 0.099,-0.003 0.094,-0.009C0.088,-0.015 0.085,-0.022 0.085,-0.03L0.085,-0.71C0.085,-0.718 0.088,-0.725 0.094,-0.731C0.1,-0.737 0.107,-0.74 0.115,-0.74C0.124,-0.74 0.131,-0.737 0.137,-0.731C0.142,-0.725 0.145,-0.718 0.145,-0.71L0.145,-0.03Z" style="fill:white;fill-rule:nonzero;"/>
            </g>
            <g transform="matrix(50,0,0,50,755.469,94.018)">
                <path d="M0.494,-0.511C0.503,-0.511 0.51,-0.508 0.516,-0.502C0.521,-0.496 0.524,-0.489 0.524,-0.48L0.524,-0.03C0.524,-0.022 0.521,-0.015 0.515,-0.009C0.509,-0.003 0.502,0 0.494,0C0.485,0 0.477,-0.003 0.472,-0.009C0.467,-0.015 0.464,-0.022 0.464,-0.03L0.464,-0.149L0.481,-0.157C0.481,-0.138 0.476,-0.119 0.466,-0.1C0.455,-0.081 0.441,-0.063 0.423,-0.046C0.405,-0.029 0.384,-0.016 0.36,-0.006C0.335,0.005 0.309,0.01 0.28,0.01C0.235,0.01 0.195,-0.002 0.16,-0.025C0.124,-0.048 0.096,-0.08 0.076,-0.121C0.055,-0.162 0.045,-0.207 0.045,-0.258C0.045,-0.31 0.055,-0.356 0.076,-0.396C0.097,-0.435 0.125,-0.466 0.16,-0.489C0.195,-0.512 0.235,-0.523 0.279,-0.523C0.308,-0.523 0.335,-0.518 0.36,-0.508C0.385,-0.498 0.406,-0.484 0.425,-0.467C0.444,-0.45 0.458,-0.43 0.469,-0.408C0.48,-0.385 0.485,-0.362 0.485,-0.338L0.464,-0.353L0.464,-0.48C0.464,-0.489 0.467,-0.496 0.472,-0.502C0.477,-0.508 0.485,-0.511 0.494,-0.511ZM0.286,-0.046C0.321,-0.046 0.353,-0.055 0.38,-0.074C0.407,-0.092 0.429,-0.117 0.445,-0.15C0.46,-0.182 0.468,-0.218 0.468,-0.258C0.468,-0.297 0.46,-0.333 0.445,-0.364C0.429,-0.395 0.407,-0.42 0.38,-0.439C0.353,-0.458 0.321,-0.467 0.286,-0.467C0.251,-0.467 0.22,-0.458 0.193,-0.44C0.165,-0.422 0.143,-0.397 0.128,-0.366C0.112,-0.335 0.104,-0.299 0.104,-0.258C0.104,-0.218 0.112,-0.182 0.127,-0.15C0.142,-0.117 0.164,-0.092 0.192,-0.074C0.219,-0.055 0.251,-0.046 0.286,-0.046Z" style="fill:white;fill-rule:nonzero;"/>
            </g>
            <g transform="matrix(50,0,0,50,787.069,94.018)">
                <path d="M0.065,-0.516C0.075,-0.516 0.083,-0.512 0.089,-0.503L0.443,-0.045C0.448,-0.04 0.45,-0.034 0.45,-0.027C0.45,-0.019 0.447,-0.012 0.441,-0.006C0.435,0 0.428,0.003 0.42,0.003C0.411,0.003 0.402,-0.001 0.395,-0.01L0.04,-0.468C0.036,-0.473 0.034,-0.479 0.034,-0.486C0.034,-0.495 0.037,-0.502 0.044,-0.508C0.05,-0.513 0.057,-0.516 0.065,-0.516ZM0.065,0.003C0.058,0.003 0.052,0.001 0.046,-0.004C0.039,-0.009 0.036,-0.015 0.036,-0.024C0.036,-0.031 0.038,-0.038 0.043,-0.043L0.212,-0.26L0.245,-0.212L0.089,-0.009C0.083,-0.001 0.075,0.003 0.065,0.003ZM0.42,-0.516C0.429,-0.516 0.436,-0.514 0.441,-0.509C0.446,-0.503 0.448,-0.497 0.448,-0.49C0.448,-0.487 0.448,-0.483 0.447,-0.48C0.446,-0.477 0.444,-0.474 0.441,-0.471L0.272,-0.249L0.241,-0.297L0.395,-0.503C0.402,-0.512 0.411,-0.516 0.42,-0.516Z" style="fill:white;fill-rule:nonzero;"/>
            </g>
        </g>
    </g>
    <defs>
        <linearGradient id="_Linear1" x1="0" y1="0" x2="1" y2="0" gradientUnits="userSpaceOnUse" gradientTransform="matrix(78.9152,-18.8465,14.9652,99.3818,404.195,65.2633)"><stop offset="0" style="stop-color:rgb(72,87,109);stop-opacity:1"/><stop offset="1" style="stop-color:rgb(26,43,68);stop-opacity:1"/></linearGradient>
    </defs>
</svg>
